<svg width="187" height="94" viewBox="0 0 187 94" fill="none" xmlns="http://www.w3.org/2000/svg">
<g clip-path="url(#clip0_475_3186)">
<path d="M19.3359 41.8601C18.4513 41.2413 17.2332 41.4351 16.605 42.313C6.40791 56.5628 0.662791 73.3469 0.0539771 90.6627C0.0151432 91.7673 0.902901 92.6742 2.00802 92.6868L17.6887 92.8663C18.7925 92.8789 19.6948 91.9943 19.7403 90.8913C20.2906 77.5451 24.7053 64.615 32.4808 53.5746C33.1313 52.6509 32.9278 51.3669 32.002 50.7193L19.3359 41.8601Z" fill="#FFF4F7"/>
<path d="M81.739 6.06319C81.593 4.97511 80.5965 4.20598 79.5102 4.36486C56.3914 7.74631 35.4201 19.3818 20.7382 36.9698C20.0139 37.8374 20.1828 39.1306 21.0893 39.8057L33.4708 49.0269C34.3363 49.6714 35.5548 49.5111 36.2498 48.6856C47.7363 35.0431 64.0347 25.9815 82.0081 23.2438C83.1068 23.0764 83.8861 22.0684 83.7383 20.9669L81.739 6.06319Z" fill="#FFDBE5"/>
<path d="M156.641 29.8563C157.436 29.0519 157.407 27.747 156.56 26.9983C147.201 18.7342 136.196 12.3909 124.209 8.36173C112.196 4.32321 99.4625 2.699 86.7899 3.58047C85.6831 3.65746 84.8707 4.63995 84.9776 5.74427L86.4268 20.7063C86.5328 21.8009 87.5025 22.6017 88.5999 22.5311C98.4736 21.8961 108.386 23.1864 117.745 26.3326C127.112 29.4813 135.72 34.4202 143.06 40.848C143.871 41.5584 145.099 41.5327 145.857 40.7659L156.641 29.8563Z" fill="#FFB2C6"/>
<path d="M185 93.7338C186.105 93.7338 187.002 92.8382 186.977 91.734C186.721 80.5456 184.317 69.4944 179.883 59.1445C175.435 48.7641 169.026 39.2815 160.99 31.1794C160.231 30.4138 159 30.4154 158.224 31.1648L147.185 41.8367C146.372 42.6228 146.374 43.9246 147.164 44.7337C153.331 51.0446 158.258 58.3947 161.699 66.4255C165.145 74.467 167.037 83.0447 167.289 91.7341C167.321 92.8382 168.214 93.7338 169.318 93.7338H185Z" fill="#FA8CA9"/>
</g>
<defs>
<clipPath id="clip0_475_3186">
<rect width="187" height="93.4678" fill="white" transform="translate(0 0.266113)"/>
</clipPath>
</defs>
</svg>
