<svg width="24" height="17" viewBox="0 0 24 17" fill="none" xmlns="http://www.w3.org/2000/svg">
<mask id="mask0_750_309" style="mask-type:luminance" maskUnits="userSpaceOnUse" x="0" y="0" width="25" height="17">
<path d="M0 0.556732H24.0012V16.5567H0V0.556732Z" fill="white"/>
</mask>
<g mask="url(#mask0_750_309)">
<path fill-rule="evenodd" clip-rule="evenodd" d="M0 0.556732H34.2V1.78798H0V0.556732ZM0 3.01923H34.2V4.25048H0V3.01923ZM0 5.47861H34.2V6.71298H0V5.47861ZM0 7.94111H34.2V9.17236H0V7.94111ZM0 10.4036H34.2V11.6349H0V10.4036ZM0 12.863H34.2V14.0942H0V12.863ZM0 15.3255H34.2V16.5567H0V15.3255Z" fill="#BD3D44"/>
<path fill-rule="evenodd" clip-rule="evenodd" d="M0 1.78799H34.2V3.01924H0V1.78799ZM0 4.25049H34.2V5.47862H0V4.25049ZM0 6.70987H34.2V7.94112H0V6.70987ZM0 9.17237H34.2V10.4036H0V9.17237ZM0 11.6349H34.2V12.8661H0V11.6349ZM0 14.0942H34.2V15.3255H0V14.0942Z" fill="white"/>
<path fill-rule="evenodd" clip-rule="evenodd" d="M0 0.556732H13.6793V9.17236H0V0.556732Z" fill="#192F5D"/>
<path fill-rule="evenodd" clip-rule="evenodd" d="M1.13916 0.925476L1.26572 1.2661H1.6665L1.34307 1.47548L1.46611 1.81923L1.13916 1.60673L0.815723 1.8161L0.93877 1.47548L0.611816 1.2661H1.01963L1.13916 0.925476ZM3.4208 0.925476L3.54385 1.2661H3.94814L3.62119 1.47548L3.74424 1.81923L3.4208 1.60673L3.09385 1.8161L3.21689 1.47548L2.89346 1.2661H3.29424L3.4208 0.925476ZM5.69893 0.925476L5.82549 1.2661H6.22275L5.89932 1.47548L6.02236 1.81923L5.69541 1.60673L5.37197 1.8161L5.49502 1.47548L5.16807 1.2661H5.57236L5.69893 0.925476ZM7.98057 0.925476L8.10361 1.2661H8.50791L8.18096 1.47548L8.30752 1.81923L7.98057 1.60673L7.65361 1.8161L7.78018 1.47548L7.45322 1.2661H7.854L7.98057 0.925476ZM10.2587 0.925476L10.3853 1.2661H10.786L10.4626 1.47548L10.5856 1.81923L10.2587 1.60673L9.93525 1.8161L10.0583 1.47548L9.73486 1.2661H10.1356L10.2587 0.925476ZM12.5403 0.925476L12.6634 1.2661H13.0677L12.7407 1.47548L12.8673 1.81923L12.5403 1.60673L12.2134 1.8161L12.3399 1.47548L12.013 1.2661H12.4173L12.5403 0.925476ZM2.28174 1.78798L2.40479 2.1286H2.80908L2.48213 2.33798L2.60166 2.6786L2.28525 2.46923L1.9583 2.6786L2.07432 2.33798L1.75791 2.1286H2.15869L2.28174 1.78798ZM4.55986 1.78798L4.68643 2.1286H5.08721L4.76025 2.33798L4.88682 2.6786L4.55986 2.46923L4.23291 2.6786L4.35947 2.33798L4.03252 2.1286H4.43682L4.55986 1.78798ZM6.8415 1.78798L6.96455 2.1286H7.36885L7.04189 2.33798L7.16494 2.6786L6.8415 2.46923L6.51455 2.6786L6.6376 2.33798L6.31416 2.1286H6.71494L6.8415 1.78798ZM9.11963 1.78798L9.24619 2.1286H9.64697L9.32002 2.33798L9.44658 2.6786L9.11963 2.46923L8.79619 2.6786L8.91924 2.33798L8.59229 2.1286H9.0001L9.11963 1.78798ZM11.4013 1.78798L11.5243 2.1286H11.9286L11.6017 2.33798L11.7247 2.6786L11.4013 2.46923L11.0743 2.6786L11.1974 2.33798L10.8739 2.1286H11.2747L11.4013 1.78798ZM1.13916 2.64735L1.26572 2.99423H1.6665L1.34307 3.2036L1.46611 3.54423L1.13916 3.33173L0.815723 3.54423L0.93877 3.20048L0.611816 2.9911H1.01963L1.13916 2.64735ZM3.4208 2.64735L3.54385 2.9911H3.94814L3.62119 3.20048L3.74424 3.5411L3.4208 3.3286L3.09385 3.5411L3.21689 3.19735L2.89346 2.98798H3.29424L3.4208 2.64735ZM5.69893 2.64735L5.82549 2.9911H6.22275L5.89932 3.20048L6.02236 3.5411L5.69541 3.3286L5.37197 3.5411L5.49502 3.19735L5.16807 2.98798H5.57236L5.69893 2.64735ZM7.98057 2.64735L8.10361 2.9911H8.50791L8.18096 3.20048L8.30752 3.5411L7.98057 3.3286L7.65361 3.5411L7.78018 3.19735L7.45322 2.98798H7.854L7.98057 2.64735ZM10.2587 2.64735L10.3853 2.9911H10.786L10.4626 3.20048L10.5856 3.5411L10.2587 3.3286L9.93525 3.5411L10.0583 3.19735L9.73486 2.98798H10.1356L10.2587 2.64735ZM12.5403 2.64735L12.6634 2.9911H13.0677L12.7407 3.20048L12.8673 3.5411L12.5403 3.3286L12.2134 3.5411L12.3399 3.19735L12.013 2.98798H12.4173L12.5403 2.64735ZM2.28174 3.50985L2.40479 3.85048H2.80908L2.48213 4.05985L2.60518 4.4036L2.28174 4.1911L1.95479 4.40048L2.07783 4.05985L1.75439 3.85048H2.15518L2.28174 3.50985ZM4.55986 3.50985L4.68643 3.85048H5.08721L4.76025 4.05985L4.88682 4.4036L4.55986 4.1911L4.23291 4.40048L4.35947 4.05985L4.03252 3.85048H4.43682L4.55986 3.50985ZM6.8415 3.50985L6.96455 3.85048H7.36885L7.04189 4.05985L7.16494 4.4036L6.8415 4.1911L6.51455 4.40048L6.6376 4.05985L6.31416 3.85048H6.71494L6.8415 3.50985ZM9.11963 3.50985L9.24619 3.85048H9.64697L9.32354 4.05985L9.44658 4.4036L9.11963 4.1911L8.79619 4.40048L8.91924 4.05985L8.59229 3.85048H9.0001L9.11963 3.50985ZM11.4013 3.50985L11.5243 3.85048H11.9286L11.6017 4.05985L11.7247 4.4036L11.4013 4.1911L11.0743 4.40048L11.1974 4.05985L10.8739 3.85048H11.2747L11.4013 3.50985ZM1.13916 4.37235L1.26572 4.71298H1.6665L1.34307 4.92235L1.46611 5.2661L1.13916 5.0536L0.815723 5.26298L0.93877 4.92235L0.611816 4.71298H1.01963L1.13916 4.37235ZM3.4208 4.37235L3.54385 4.71298H3.94814L3.62119 4.92235L3.74424 5.26298L3.4208 5.0536L3.09385 5.26298L3.21689 4.92235L2.89346 4.71298H3.29424L3.4208 4.37235ZM5.69893 4.37235L5.82549 4.71298H6.22275L5.89932 4.92235L6.02236 5.2661L5.69541 5.0536L5.37197 5.26298L5.49502 4.92235L5.16807 4.71298H5.57236L5.69893 4.37235ZM7.98057 4.37235L8.10361 4.71298H8.50791L8.18096 4.92235L8.30752 5.2661L7.98057 5.0536L7.65361 5.26298L7.78018 4.92235L7.45322 4.71298H7.854L7.98057 4.37235ZM10.2587 4.37235L10.3853 4.71298H10.786L10.4626 4.92235L10.5856 5.2661L10.2587 5.0536L9.93525 5.26298L10.0583 4.92235L9.73486 4.71298H10.1356L10.2587 4.37235ZM12.5403 4.37235L12.6634 4.71298H13.0677L12.7407 4.92235L12.8673 5.2661L12.5403 5.0536L12.2134 5.26298L12.3399 4.92235L12.013 4.71298H12.4173L12.5403 4.37235ZM2.28174 5.23485L2.40479 5.57548H2.80908L2.48213 5.78485L2.60518 6.12548L2.28174 5.91298L1.95479 6.12548L2.07783 5.78173L1.75439 5.57235H2.15518L2.28174 5.23485ZM4.55986 5.23485L4.68643 5.57548H5.08721L4.76025 5.78485L4.88682 6.12548L4.55986 5.91298L4.23291 6.12548L4.35947 5.78173L4.03252 5.57235H4.43682L4.55986 5.23485ZM6.8415 5.23485L6.96455 5.57548H7.36885L7.04189 5.78485L7.16494 6.12548L6.8415 5.91298L6.51455 6.12548L6.6376 5.78173L6.31416 5.57235H6.71494L6.8415 5.23485ZM9.11963 5.23485L9.24619 5.57548H9.64697L9.32354 5.78485L9.44658 6.12548L9.11963 5.91298L8.79619 6.12548L8.91924 5.78173L8.59229 5.57235H9.0001L9.11963 5.23485ZM11.4013 5.23485L11.5243 5.57548H11.9286L11.6017 5.78485L11.7247 6.12548L11.4013 5.91298L11.0743 6.12548L11.1974 5.78173L10.8739 5.57235H11.2747L11.4013 5.23485ZM1.13916 6.09423L1.26572 6.43798H1.6665L1.34307 6.64735L1.46611 6.98485L1.13916 6.77548L0.815723 6.98485L0.93877 6.64423L0.611816 6.43485H1.01963L1.13916 6.09423ZM3.4208 6.09423L3.54385 6.43798H3.94814L3.62119 6.64735L3.74775 6.98485L3.4208 6.77548L3.09385 6.98485L3.22041 6.64423L2.89346 6.43485H3.29424L3.4208 6.09423ZM5.69893 6.09423L5.82549 6.43798H6.22275L5.89932 6.64735L6.02236 6.98485L5.69541 6.77548L5.37197 6.98485L5.49502 6.64423L5.16807 6.43485H5.57236L5.69893 6.09423ZM7.98057 6.09423L8.10361 6.43798H8.50791L8.18096 6.64735L8.30752 6.98485L7.98057 6.77548L7.65361 6.98485L7.78018 6.64423L7.45322 6.43485H7.854L7.98057 6.09423ZM10.2587 6.09423L10.3853 6.43798H10.786L10.4626 6.64735L10.5856 6.98485L10.2587 6.77548L9.93525 6.98485L10.0583 6.64423L9.73486 6.43485H10.1356L10.2587 6.09423ZM12.5403 6.09423L12.6634 6.43798H13.0677L12.7407 6.64735L12.8673 6.98485L12.5403 6.77548L12.2134 6.98485L12.3399 6.64423L12.013 6.43485H12.4173L12.5403 6.09423ZM2.28174 6.95673L2.40479 7.29735H2.80908L2.48213 7.50673L2.60518 7.85048L2.28174 7.63798L1.95479 7.84735L2.07783 7.50673L1.75439 7.29735H2.15518L2.28174 6.95673ZM4.55986 6.95673L4.68643 7.29735H5.08721L4.76025 7.50673L4.88682 7.85048L4.55986 7.63798L4.23291 7.84735L4.35947 7.50673L4.03252 7.29735H4.43682L4.55986 6.95673ZM6.8415 6.95673L6.96455 7.29735H7.36885L7.04189 7.50673L7.16494 7.85048L6.8415 7.63798L6.51455 7.84735L6.6376 7.50673L6.31416 7.29735H6.71494L6.8415 6.95673ZM9.11963 6.95673L9.24619 7.29735H9.64697L9.32354 7.50673L9.44658 7.85048L9.11963 7.63798L8.79619 7.84735L8.91924 7.50673L8.59229 7.29735H9.0001L9.11963 6.95673ZM11.4013 6.95673L11.5243 7.29735H11.9286L11.6017 7.50673L11.7247 7.85048L11.4013 7.63798L11.0743 7.84735L11.1974 7.50673L10.8739 7.29735H11.2747L11.4013 6.95673ZM1.13916 7.81923L1.26572 8.15985H1.6665L1.34307 8.36923L1.46611 8.70985L1.13916 8.50048L0.815723 8.70985L0.93877 8.3661L0.611816 8.15673H1.01963L1.13916 7.81923ZM3.4208 7.81923L3.54385 8.15985H3.94814L3.62119 8.36923L3.74775 8.70985L3.4208 8.50048L3.09385 8.70985L3.22041 8.3661L2.89346 8.15673H3.29424L3.4208 7.81923ZM5.69893 7.81923L5.82549 8.15985H6.22275L5.90635 8.36923L6.02939 8.70985L5.70244 8.50048L5.379 8.70985L5.50205 8.3661L5.1751 8.15673H5.57939L5.69893 7.81923ZM7.98057 7.81923L8.10361 8.15985H8.50791L8.18096 8.36923L8.30752 8.70985L7.98057 8.50048L7.65361 8.70985L7.78018 8.3661L7.45322 8.15673H7.854L7.98057 7.81923ZM10.2587 7.81923L10.3853 8.15985H10.786L10.4626 8.36923L10.5856 8.70985L10.2587 8.50048L9.93525 8.70985L10.0583 8.3661L9.73486 8.15673H10.1356L10.2587 7.81923ZM12.5403 7.81923L12.6634 8.15985H13.0677L12.7407 8.36923L12.8673 8.70985L12.5403 8.50048L12.2134 8.70985L12.3399 8.3661L12.013 8.15673H12.4173L12.5403 7.81923Z" fill="white"/>
</g>
</svg>
