<svg width="33" height="33" viewBox="0 0 33 33" fill="none" xmlns="http://www.w3.org/2000/svg">
<circle cx="16.5" cy="16.0284" r="16" fill="#D9D9D9"/>
<g clip-path="url(#clip0_80_536)">
<path d="M16.3528 8.20285C17.7177 8.20285 18.9151 7.66986 19.9449 6.60384C20.9748 5.53783 21.4897 4.29824 21.4897 2.88508C21.4897 2.72987 21.4774 2.50932 21.4529 2.22341C21.2731 2.24792 21.1382 2.26834 21.0483 2.28468C19.7896 2.46439 18.6822 3.08113 17.7259 4.13486C16.7696 5.18863 16.2915 6.31591 16.2915 7.51671C16.2915 7.65555 16.3119 7.8843 16.3528 8.20285ZM21.2445 26.9377C22.2171 26.9377 23.2919 26.2719 24.4689 24.9404C25.6458 23.6089 26.5448 22.0446 27.166 20.2475C24.853 19.0549 23.6965 17.3436 23.6965 15.1135C23.6965 13.2511 24.6323 11.6582 26.504 10.3349C25.2045 8.70931 23.4881 7.89653 21.3548 7.89653C20.4558 7.89653 19.6344 8.03131 18.8906 8.30088L18.4247 8.47242L17.7994 8.71748C17.3908 8.87269 17.0189 8.95032 16.6838 8.95032C16.4222 8.95032 16.0789 8.86043 15.654 8.68072L15.1758 8.48467L14.7222 8.30088C14.0601 8.02314 13.3491 7.88427 12.589 7.88427C10.5538 7.88427 8.91917 8.57045 7.68499 9.94279C6.45082 11.3151 5.83374 13.1245 5.83374 15.3708C5.83374 18.5321 6.8227 21.4524 8.80065 24.1317C10.1738 26.0023 11.4284 26.9377 12.5644 26.9377C13.0467 26.9377 13.5248 26.8437 13.9989 26.6558L14.5996 26.4108L15.0778 26.2392C15.7479 26.0023 16.365 25.8839 16.929 25.8839C17.5256 25.8839 18.2122 26.035 18.9887 26.3373L19.3687 26.4843C20.1615 26.7865 20.7868 26.9377 21.2445 26.9377Z" fill="black"/>
</g>
<defs>
<clipPath id="clip0_80_536">
<rect width="21.3333" height="24.7142" fill="white" transform="translate(5.83337 2.69503)"/>
</clipPath>
</defs>
</svg>
