<svg width="20" height="24" viewBox="0 0 20 24" fill="none" xmlns="http://www.w3.org/2000/svg">
<path d="M1.45468 24C1.16535 24 0.887874 23.8851 0.683289 23.6805C0.478704 23.4759 0.36377 23.1985 0.36377 22.9091V19.6364C0.36377 19.3471 0.478704 19.0696 0.683289 18.865C0.887874 18.6604 1.16535 18.5455 1.45468 18.5455C1.74401 18.5455 2.02148 18.6604 2.22607 18.865C2.43065 19.0696 2.54559 19.3471 2.54559 19.6364V22.9091C2.54559 23.1985 2.43065 23.4759 2.22607 23.6805C2.02148 23.8851 1.74401 24 1.45468 24ZM11.2729 22.9091V15.2728C11.2729 14.9834 11.1579 14.706 10.9533 14.5014C10.7488 14.2968 10.4713 14.1818 10.182 14.1818C9.89262 14.1818 9.61515 14.2968 9.41056 14.5014C9.20598 14.706 9.09104 14.9834 9.09104 15.2728V22.9091C9.09104 23.1985 9.20598 23.4759 9.41056 23.6805C9.61515 23.8851 9.89262 24 10.182 24C10.4713 24 10.7488 23.8851 10.9533 23.6805C11.1579 23.4759 11.2729 23.1985 11.2729 22.9091ZM18.9092 10.9091C18.6199 10.9091 18.3424 11.0241 18.1378 11.2286C17.9332 11.4332 17.8183 11.7107 17.8183 12V22.9091C17.8183 23.1985 17.9332 23.4759 18.1378 23.6805C18.3424 23.8851 18.6199 24 18.9092 24C19.1986 24 19.476 23.8851 19.6806 23.6805C19.8852 23.4759 20.0001 23.1985 20.0001 22.9091V12C20.0001 11.7107 19.8852 11.4332 19.6806 11.2286C19.476 11.0241 19.1986 10.9091 18.9092 10.9091ZM19.326 0.0840305C19.194 0.0287263 19.0523 0.000174335 18.9092 3.05176e-05H14.5456C14.2563 3.05176e-05 13.9788 0.114965 13.7742 0.31955C13.5696 0.524135 13.4547 0.801613 13.4547 1.09094C13.4547 1.38027 13.5696 1.65774 13.7742 1.86233C13.9788 2.06691 14.2563 2.18185 14.5456 2.18185H16.2758L10.182 8.27567L6.58959 4.6833C6.38501 4.47879 6.10758 4.3639 5.81832 4.3639C5.52905 4.3639 5.25162 4.47879 5.04704 4.6833L0.683406 9.04694C0.484688 9.25269 0.374731 9.52825 0.377216 9.81429C0.379702 10.1003 0.494431 10.3739 0.696695 10.5762C0.898958 10.7785 1.17257 10.8932 1.4586 10.8957C1.74464 10.8982 2.0202 10.7882 2.22595 10.5895L5.81832 6.99712L9.41068 10.5895C9.61525 10.794 9.89268 10.9089 10.182 10.9089C10.4712 10.9089 10.7486 10.794 10.9532 10.5895L17.8183 3.72439V5.45458C17.8183 5.7439 17.9332 6.02138 18.1378 6.22597C18.3424 6.43055 18.6199 6.54549 18.9092 6.54549C19.1986 6.54549 19.476 6.43055 19.6806 6.22597C19.8852 6.02138 20.0001 5.7439 20.0001 5.45458V1.09094C19.9999 0.875257 19.9357 0.664488 19.8157 0.485268C19.6957 0.306049 19.5253 0.166421 19.326 0.0840305Z" fill="#00BDD6"/>
</svg>
