<svg width="18" height="15" viewBox="0 0 18 15" fill="none" xmlns="http://www.w3.org/2000/svg">
<path d="M16.6964 8.9H1.30371V11.7H16.6964V8.9Z" stroke="#00BDD6" stroke-miterlimit="10"/>
<path d="M1.30371 6.1H14.6C14.8785 6.09996 15.1541 6.15537 15.4108 6.263C15.6676 6.37064 15.9003 6.52834 16.0955 6.7269C16.2906 6.92546 16.4443 7.16091 16.5475 7.41949C16.6506 7.67808 16.7012 7.95462 16.6964 8.23298V8.96597H1.30371V6.1Z" stroke="#00BDD6" stroke-miterlimit="10"/>
<path d="M4.80005 3.3H2.70371C1.93051 3.3 1.30371 3.9268 1.30371 4.7C1.30371 5.4732 1.93051 6.1 2.70371 6.1H4.80005C5.57324 6.1 6.20005 5.4732 6.20005 4.7C6.20005 3.9268 5.57324 3.3 4.80005 3.3Z" stroke="#00BDD6" stroke-miterlimit="10"/>
<path d="M7.6001 6.1V8.9" stroke="#00BDD6" stroke-miterlimit="10"/>
<path d="M1.30371 0.5V6.1" stroke="#00BDD6" stroke-miterlimit="10"/>
<path d="M1.30371 14.5V11.7" stroke="#00BDD6" stroke-miterlimit="10"/>
</svg>
