<svg width="17" height="14" viewBox="0 0 17 14" fill="none" xmlns="http://www.w3.org/2000/svg">
<path d="M15.0373 1.5H13.0559V1C13.0559 0.867392 12.9863 0.740215 12.8625 0.646447C12.7386 0.552678 12.5706 0.5 12.3955 0.5C12.2203 0.5 12.0523 0.552678 11.9285 0.646447C11.8046 0.740215 11.735 0.867392 11.735 1V1.5H5.13049V1C5.13049 0.867392 5.06091 0.740215 4.93705 0.646447C4.81319 0.552678 4.6452 0.5 4.47004 0.5C4.29488 0.5 4.12689 0.552678 4.00303 0.646447C3.87917 0.740215 3.80959 0.867392 3.80959 1V1.5H1.82823C1.4779 1.5 1.14193 1.60536 0.894208 1.79289C0.646491 1.98043 0.507324 2.23478 0.507324 2.5V12.5C0.507324 12.7652 0.646491 13.0196 0.894208 13.2071C1.14193 13.3946 1.4779 13.5 1.82823 13.5H15.0373C15.3876 13.5 15.7236 13.3946 15.9713 13.2071C16.219 13.0196 16.3582 12.7652 16.3582 12.5V2.5C16.3582 2.23478 16.219 1.98043 15.9713 1.79289C15.7236 1.60536 15.3876 1.5 15.0373 1.5ZM3.80959 2.5V3C3.80959 3.13261 3.87917 3.25979 4.00303 3.35355C4.12689 3.44732 4.29488 3.5 4.47004 3.5C4.6452 3.5 4.81319 3.44732 4.93705 3.35355C5.06091 3.25979 5.13049 3.13261 5.13049 3V2.5H11.735V3C11.735 3.13261 11.8046 3.25979 11.9285 3.35355C12.0523 3.44732 12.2203 3.5 12.3955 3.5C12.5706 3.5 12.7386 3.44732 12.8625 3.35355C12.9863 3.25979 13.0559 3.13261 13.0559 3V2.5H15.0373V4.5H1.82823V2.5H3.80959ZM15.0373 12.5H1.82823V5.5H15.0373V12.5ZM7.11185 7V11C7.11185 11.1326 7.04226 11.2598 6.91841 11.3536C6.79455 11.4473 6.62656 11.5 6.4514 11.5C6.27623 11.5 6.10824 11.4473 5.98439 11.3536C5.86053 11.2598 5.79094 11.1326 5.79094 11V7.80875L5.42604 7.9475C5.26927 8.00684 5.08778 8.01661 4.9215 7.97465C4.75522 7.93268 4.61777 7.84243 4.53939 7.72375C4.461 7.60507 4.4481 7.46767 4.50353 7.34178C4.55896 7.2159 4.67817 7.11184 4.83494 7.0525L6.15584 6.5525C6.25657 6.51434 6.36852 6.49632 6.48104 6.50015C6.59356 6.50397 6.70293 6.52952 6.79873 6.57437C6.89453 6.61921 6.97359 6.68186 7.0284 6.75636C7.0832 6.83086 7.11193 6.91473 7.11185 7ZM11.9959 8.90312L10.4141 10.5H11.735C11.9102 10.5 12.0782 10.5527 12.202 10.6464C12.3259 10.7402 12.3955 10.8674 12.3955 11C12.3955 11.1326 12.3259 11.2598 12.202 11.3536C12.0782 11.4473 11.9102 11.5 11.735 11.5H9.09321C8.97055 11.5 8.85032 11.4741 8.74599 11.4253C8.64165 11.3765 8.55733 11.3067 8.50248 11.2236C8.44763 11.1406 8.42441 11.0476 8.43542 10.9551C8.44644 10.8626 8.49125 10.7743 8.56484 10.7L10.9408 8.30188C10.9949 8.24741 11.0336 8.18515 11.0548 8.11893C11.0759 8.05271 11.0789 7.98392 11.0636 7.91679C11.0484 7.84965 11.0152 7.78558 10.966 7.72852C10.9169 7.67145 10.8528 7.62259 10.7779 7.58493C10.7029 7.54727 10.6185 7.52161 10.53 7.50952C10.4414 7.49743 10.3505 7.49916 10.2629 7.51462C10.1753 7.53008 10.0927 7.55893 10.0203 7.59941C9.94796 7.63988 9.88727 7.69113 9.84199 7.75C9.79991 7.80868 9.74272 7.86038 9.67381 7.90205C9.60491 7.94373 9.52567 7.97453 9.44079 7.99265C9.3559 8.01076 9.26708 8.01582 9.17957 8.00753C9.09205 7.99924 9.00762 7.97776 8.93125 7.94436C8.85488 7.91097 8.78812 7.86633 8.7349 7.81308C8.68169 7.75984 8.6431 7.69906 8.62142 7.63434C8.59973 7.56962 8.59539 7.50227 8.60864 7.43626C8.62189 7.37025 8.65248 7.30692 8.69859 7.25C8.91675 6.96418 9.25337 6.74083 9.65625 6.61456C10.0591 6.4883 10.5058 6.46617 10.927 6.55162C11.3482 6.63707 11.7203 6.82531 11.9858 7.08717C12.2513 7.34904 12.3953 7.66989 12.3955 8C12.3969 8.32609 12.2565 8.64346 11.9959 8.90312Z" fill="#00BDD6"/>
</svg>
