<svg width="20" height="16" viewBox="0 0 20 16" fill="none" xmlns="http://www.w3.org/2000/svg">
<path d="M19.8596 8.42215C19.7302 8.22055 19.5386 8.07548 19.3188 7.97593C19.0987 7.87637 18.8459 7.82268 18.5775 7.82233H13.7331C13.6936 7.82233 13.6573 7.83264 13.6218 7.84473C13.5866 7.83264 13.5503 7.82233 13.5109 7.82233H1.15536C0.959093 7.82233 0.799805 7.98126 0.799805 8.17788V10.6668C0.801227 11.4515 1.43731 12.0875 2.22202 12.089H12.4442C13.2289 12.0875 13.865 11.4515 13.8664 10.6668V9.95565H18.5775C18.9355 9.95458 19.2655 9.86072 19.5279 9.68685C19.6587 9.59938 19.7739 9.49023 19.8596 9.35583C19.9457 9.2225 20.0001 9.06001 19.9997 8.88899C20.0001 8.71797 19.9457 8.55548 19.8596 8.42215ZM12.9462 11.1688C12.8154 11.2986 12.6394 11.3779 12.4442 11.3779H2.22202C2.02682 11.3779 1.85082 11.2986 1.71998 11.1688C1.5902 11.0383 1.51091 10.8623 1.51091 10.6668V8.53343H13.1553V10.6668C13.1553 10.8623 13.076 11.0383 12.9462 11.1688ZM19.2602 8.97396C19.2271 9.0273 19.1478 9.09983 19.0266 9.15423C18.9064 9.20863 18.7489 9.2449 18.5775 9.24454H13.8664V8.53343H18.5775C18.8061 8.53237 19.0095 8.59886 19.1336 8.68277C19.1958 8.72401 19.2378 8.76846 19.2602 8.80401C19.2826 8.84028 19.2882 8.86481 19.2886 8.88899C19.2882 8.91317 19.2826 8.9377 19.2602 8.97396Z" fill="#00BDD6"/>
<path d="M2.57772 9.24454C2.38146 9.24454 2.22217 9.40347 2.22217 9.60009V10.3112C2.22217 10.5078 2.38146 10.6668 2.57772 10.6668C2.77399 10.6668 2.93328 10.5078 2.93328 10.3112V9.60009C2.93328 9.40347 2.77399 9.24454 2.57772 9.24454Z" fill="#00BDD6"/>
<path d="M3.11951 3.08884C2.71845 3.63959 2.57623 4.21381 2.57765 4.71336C2.58298 5.71567 3.10102 6.41611 3.11951 6.44704C3.23471 6.60597 3.45729 6.64153 3.61622 6.52633C3.7748 6.41149 3.81 6.18998 3.69586 6.03069L3.69515 6.02962C3.68235 6.01682 3.28378 5.42767 3.28875 4.71336C3.29018 4.34145 3.38511 3.93541 3.69515 3.5059C4.09622 2.95515 4.23844 2.38057 4.23702 1.88102C4.23168 0.878714 3.71364 0.177918 3.69515 0.146984C3.57995 -0.0119481 3.35773 -0.0475037 3.1988 0.0676958C3.04022 0.18254 3.00502 0.40405 3.11916 0.563338L3.11987 0.564404C3.13267 0.577204 3.53124 1.16671 3.52626 1.88102C3.52449 2.25293 3.42955 2.65933 3.11951 3.08884Z" fill="#00BDD6"/>
<path d="M10.5858 3.08884C10.1848 3.63959 10.0425 4.21381 10.044 4.71336C10.0493 5.71567 10.5673 6.41611 10.5858 6.44704C10.701 6.60597 10.9236 6.64153 11.0825 6.52633C11.2411 6.41149 11.2763 6.18998 11.1622 6.03069L11.1615 6.02962C11.1487 6.01682 10.7501 5.42767 10.7551 4.71336C10.7565 4.34145 10.8514 3.93541 11.1615 3.5059C11.5625 2.95515 11.7047 2.38057 11.7033 1.88102C11.698 0.878714 11.18 0.177918 11.1615 0.146984C11.0463 -0.0119481 10.824 -0.0475037 10.6651 0.0676958C10.5065 0.18254 10.4713 0.40405 10.5855 0.563338L10.5862 0.564404C10.599 0.577204 10.9976 1.16671 10.9926 1.88102C10.9908 2.25293 10.8959 2.65933 10.5858 3.08884Z" fill="#00BDD6"/>
<path d="M6.85291 3.08919C6.45185 3.63994 6.30962 4.21416 6.31105 4.71336C6.31638 5.71567 6.83442 6.41611 6.85291 6.44704C6.96811 6.60597 7.19069 6.64153 7.34962 6.52633C7.5082 6.41149 7.5434 6.18998 7.42926 6.03069L7.42855 6.02962C7.41575 6.01682 7.01718 5.42767 7.02215 4.71336C7.02358 4.34181 7.11851 3.93577 7.42855 3.50626C7.82962 2.95515 7.97184 2.38057 7.97042 1.88102C7.96508 0.878714 7.44704 0.177918 7.42855 0.146984C7.31335 -0.0119481 7.09078 -0.0475037 6.9322 0.0676958C6.77362 0.18254 6.73842 0.40405 6.85255 0.563338L6.85327 0.564404C6.86607 0.577204 7.26429 1.16636 7.25966 1.88102C7.25789 2.25293 7.16295 2.65933 6.85291 3.08919Z" fill="#00BDD6"/>
<path d="M12.5333 15.289H11.1947C11.2092 15.2623 11.2256 15.237 11.2391 15.2093C11.3575 14.9629 11.4222 14.6778 11.4222 14.3738C11.4219 14.1281 11.3436 13.9094 11.2419 13.7266C11.0873 13.4518 10.8779 13.2431 10.7065 13.0945C10.5351 12.9469 10.4 12.8616 10.3893 12.8548C10.2734 12.7816 10.1266 12.7816 10.0107 12.8548C9.99644 12.8637 9.76142 13.0113 9.51324 13.263C9.38915 13.3896 9.26115 13.5428 9.1584 13.7266C9.05635 13.9098 8.97849 14.1281 8.97813 14.3738C8.97849 14.7119 9.06204 15.0248 9.20782 15.2886H8.35022C8.3648 15.2619 8.38116 15.2367 8.39467 15.209C8.51307 14.9626 8.57778 14.6774 8.57778 14.3734C8.57742 14.1277 8.4992 13.909 8.39751 13.7263C8.24285 13.4514 8.03342 13.2427 7.86205 13.0941C7.69067 12.9469 7.55556 12.8616 7.54489 12.8548C7.42898 12.7816 7.28214 12.7816 7.16623 12.8548C7.15201 12.8637 6.91699 13.0113 6.66881 13.263C6.54472 13.3896 6.41672 13.5428 6.31397 13.7266C6.21192 13.9098 6.13406 14.1281 6.1337 14.3738C6.13406 14.7119 6.21761 15.0248 6.36339 15.2886H5.57939C5.58401 15.2794 5.59006 15.2705 5.59468 15.2609C5.71272 15.0148 5.77779 14.7297 5.77779 14.426C5.77744 14.1803 5.69921 13.9617 5.59753 13.7786C5.44286 13.5037 5.23344 13.295 5.06206 13.1464C4.89068 12.9988 4.75557 12.9135 4.74491 12.9067C4.629 12.8335 4.48215 12.8335 4.36624 12.9067C4.35202 12.9156 4.117 13.0632 3.86882 13.3153C3.74473 13.4415 3.61673 13.5947 3.51398 13.7786C3.41194 13.962 3.33407 14.1803 3.33371 14.426C3.33407 14.7418 3.40518 15.0362 3.53318 15.289H2.22225C2.02599 15.289 1.8667 15.4479 1.8667 15.6445C1.8667 15.8411 2.02599 16.0001 2.22225 16.0001H12.5333C12.7296 16.0001 12.8889 15.8411 12.8889 15.6445C12.8889 15.4479 12.7296 15.289 12.5333 15.289ZM9.77919 14.073C9.86844 13.9108 10.0242 13.7473 10.1579 13.6331C10.1728 13.6203 10.1856 13.6107 10.1995 13.599C10.2613 13.6498 10.3292 13.7089 10.3971 13.7796C10.4864 13.8724 10.5699 13.9791 10.6265 14.0833C10.6834 14.1882 10.7115 14.2863 10.7115 14.3741C10.7122 14.6422 10.6315 14.879 10.5234 15.0298C10.4697 15.1055 10.4107 15.1592 10.3559 15.1915C10.3004 15.2239 10.2521 15.237 10.2002 15.2374C10.1486 15.237 10.0999 15.2239 10.0444 15.1915C9.96266 15.1435 9.87022 15.045 9.80195 14.9018C9.73297 14.7588 9.68888 14.575 9.68888 14.3741C9.68853 14.2834 9.71875 14.1818 9.77919 14.073ZM6.93476 14.073C7.02401 13.9108 7.17974 13.7473 7.31343 13.6331C7.32836 13.6203 7.34116 13.6107 7.35503 13.599C7.41689 13.6498 7.4848 13.7089 7.55272 13.7796C7.64196 13.8724 7.72551 13.9791 7.78205 14.0833C7.83894 14.1882 7.86702 14.2863 7.86702 14.3741C7.86774 14.6422 7.78702 14.879 7.67894 15.0298C7.62525 15.1055 7.56623 15.1592 7.51147 15.1915C7.456 15.2239 7.40765 15.237 7.35574 15.2374C7.30418 15.237 7.25547 15.2239 7.20001 15.1915C7.11823 15.1435 7.02578 15.045 6.95752 14.9018C6.88854 14.7588 6.84445 14.575 6.84445 14.3741C6.8441 14.2834 6.87432 14.1818 6.93476 14.073ZM4.40002 15.2431C4.31824 15.1951 4.2258 15.0966 4.15718 14.9533C4.08855 14.8107 4.04411 14.6273 4.04447 14.4264C4.04411 14.3357 4.07433 14.2337 4.13478 14.1249C4.22402 13.9627 4.37975 13.7992 4.51344 13.685C4.52837 13.6722 4.54117 13.6626 4.55504 13.6506C4.61691 13.7018 4.68482 13.7608 4.75237 13.8315C4.84162 13.9243 4.92517 14.031 4.98171 14.1352C5.03859 14.2401 5.06668 14.3382 5.06668 14.426C5.06739 14.6941 4.98704 14.9309 4.8786 15.0813C4.82491 15.157 4.76588 15.2107 4.71113 15.2431C4.65566 15.2754 4.60731 15.2886 4.5554 15.289C4.50384 15.2886 4.45549 15.2754 4.40002 15.2431Z" fill="#00BDD6"/>
</svg>
