<svg width="19" height="18" viewBox="0 0 19 18" fill="none" xmlns="http://www.w3.org/2000/svg">
<path d="M14.5835 3H1.0835C0.884584 3 0.693818 3.07902 0.553166 3.21967C0.412514 3.36032 0.333496 3.55109 0.333496 3.75V17.25C0.333496 17.4489 0.412514 17.6397 0.553166 17.7803C0.693818 17.921 0.884584 18 1.0835 18H14.5835C14.7824 18 14.9732 17.921 15.1138 17.7803C15.2545 17.6397 15.3335 17.4489 15.3335 17.25V3.75C15.3335 3.55109 15.2545 3.36032 15.1138 3.21967C14.9732 3.07902 14.7824 3 14.5835 3ZM13.8335 16.5H1.8335V4.5H13.8335V16.5ZM18.3335 0.75V14.25C18.3335 14.4489 18.2545 14.6397 18.1138 14.7803C17.9732 14.921 17.7824 15 17.5835 15C17.3846 15 17.1938 14.921 17.0532 14.7803C16.9125 14.6397 16.8335 14.4489 16.8335 14.25V1.5H4.0835C3.88458 1.5 3.69382 1.42098 3.55317 1.28033C3.41251 1.13968 3.3335 0.948912 3.3335 0.75C3.3335 0.551088 3.41251 0.360322 3.55317 0.21967C3.69382 0.0790178 3.88458 0 4.0835 0H17.5835C17.7824 0 17.9732 0.0790178 18.1138 0.21967C18.2545 0.360322 18.3335 0.551088 18.3335 0.75Z" fill="#00BDD6"/>
</svg>
