<svg width="25" height="24" viewBox="0 0 25 24" fill="none" xmlns="http://www.w3.org/2000/svg">
<path d="M20.417 5.25H3.91699" stroke="#00BDD6" stroke-width="1.5" stroke-linecap="round" stroke-linejoin="round"/>
<path d="M9.91699 9.75V15.75" stroke="#00BDD6" stroke-width="1.5" stroke-linecap="round" stroke-linejoin="round"/>
<path d="M14.417 9.75V15.75" stroke="#00BDD6" stroke-width="1.5" stroke-linecap="round" stroke-linejoin="round"/>
<path d="M18.917 5.25V19.5C18.917 19.6989 18.838 19.8897 18.6973 20.0303C18.5567 20.171 18.3659 20.25 18.167 20.25H6.16699C5.96808 20.25 5.77731 20.171 5.63666 20.0303C5.49601 19.8897 5.41699 19.6989 5.41699 19.5V5.25" stroke="#00BDD6" stroke-width="1.5" stroke-linecap="round" stroke-linejoin="round"/>
<path d="M15.917 5.25V3.75C15.917 3.35218 15.759 2.97064 15.4777 2.68934C15.1963 2.40804 14.8148 2.25 14.417 2.25H9.91699C9.51917 2.25 9.13764 2.40804 8.85633 2.68934C8.57503 2.97064 8.41699 3.35218 8.41699 3.75V5.25" stroke="#00BDD6" stroke-width="1.5" stroke-linecap="round" stroke-linejoin="round"/>
</svg>
