<svg width="20" height="13" viewBox="0 0 20 13" fill="none" xmlns="http://www.w3.org/2000/svg">
<path d="M4.99984 1.5H3.33317C2.4127 1.5 1.6665 2.24619 1.6665 3.16667V9.83333C1.6665 10.7538 2.4127 11.5 3.33317 11.5H4.99984C5.92031 11.5 6.6665 10.7538 6.6665 9.83333V3.16667C6.6665 2.24619 5.92031 1.5 4.99984 1.5Z" stroke="#00BDD6" stroke-width="1.5" stroke-linecap="round" stroke-linejoin="round"/>
<path d="M16.6663 1.5H14.9997C14.0792 1.5 13.333 2.24619 13.333 3.16667V9.83333C13.333 10.7538 14.0792 11.5 14.9997 11.5H16.6663C17.5868 11.5 18.333 10.7538 18.333 9.83333V3.16667C18.333 2.24619 17.5868 1.5 16.6663 1.5Z" stroke="#00BDD6" stroke-width="1.5" stroke-linecap="round" stroke-linejoin="round"/>
<path d="M6.6665 4.83334H13.3332" stroke="#00BDD6" stroke-width="1.5" stroke-linecap="round" stroke-linejoin="round"/>
<path d="M13.3332 8.16666H6.6665" stroke="#00BDD6" stroke-width="1.5" stroke-linecap="round" stroke-linejoin="round"/>
</svg>
