<svg width="23" height="25" viewBox="0 0 23 25" fill="none" xmlns="http://www.w3.org/2000/svg">
<path d="M0.783918 14.3529C1.11606 10.692 3.85728 7.5625 7.66966 6.35021C7.79287 6.58186 7.93419 6.80371 8.0925 7.0136L8.09415 7.01577C8.8378 7.9943 9.93403 8.59817 11.1157 8.59817C12.2971 8.59817 13.3912 7.99661 14.137 7.01598L14.1388 7.01361C14.2994 6.8007 14.4425 6.57549 14.567 6.34023C18.3958 7.54512 21.1529 10.6819 21.4861 14.3529H21.3429C21.2503 13.3193 20.9618 12.3106 20.4905 11.3827L19.0879 11.8767C19.1858 12.3423 19.2352 12.817 19.2352 13.2931L0.783918 14.3529ZM0.783918 14.3529H0.927602M0.783918 14.3529H0.927602M0.927602 14.3529C1.02067 13.3193 1.30962 12.3107 1.78137 11.3829L3.18391 11.8769C3.086 12.3434 3.03661 12.8189 3.03654 13.2958L0.927602 14.3529ZM19.2352 13.2932C19.2352 15.5411 18.9523 17.3553 17.8916 18.6242C16.8547 19.8646 14.9133 20.763 11.1359 20.763C7.5995 20.763 5.6396 19.8731 4.53809 18.613C3.41936 17.3331 3.03655 15.5065 3.03654 13.2959L19.2352 13.2932ZM13.7474 22.9654C14.277 22.897 14.7851 22.8047 15.2713 22.6877V23.7314H13.7474V22.9654ZM8.79908 22.9839V23.7314H7.27519V22.7156C7.75197 22.8296 8.2603 22.9187 8.79908 22.9839ZM9.3877 3.73712C9.3877 2.98732 9.61988 2.33646 9.9602 1.88922C10.3001 1.44256 10.7154 1.23145 11.1151 1.23145C11.5148 1.23145 11.9302 1.44257 12.2701 1.88923C12.6104 2.33646 12.8426 2.98732 12.8426 3.73712C12.8426 4.48696 12.6104 5.13783 12.2701 5.58506C11.9302 6.03172 11.5148 6.24285 11.1151 6.24285C10.7154 6.24285 10.3001 6.03173 9.9602 5.58507C9.61988 5.13783 9.3877 4.48696 9.3877 3.73712Z" stroke="#00BDD6" stroke-width="1.5"/>
</svg>
