<svg width="11" height="25" viewBox="0 0 11 25" fill="none" xmlns="http://www.w3.org/2000/svg">
<path d="M7.27109 2.77192C7.27109 3.74861 6.47818 4.54212 5.50009 4.54212C4.52122 4.54212 3.729 3.74871 3.729 2.77192C3.729 1.79208 4.52131 1.00003 5.50009 1.00003C6.47808 1.00003 7.27109 1.79218 7.27109 2.77192Z" stroke="white"/>
<path d="M10.4498 18.4491L10.4499 18.4495C10.4897 18.5427 10.4799 18.6503 10.4237 18.7351L10.4234 18.7356C10.3673 18.8205 10.2721 18.8717 10.1699 18.8717H7.68927H7.25753L7.19461 19.2989L6.55303 23.6544L6.5477 23.6906V23.7273C6.5477 23.8776 6.42563 24 6.27454 24H6.27362H6.27268H6.27171H6.27072H6.2697H6.26866H6.26759H6.2665H6.26539H6.26425H6.26309H6.26191H6.2607H6.25946H6.25821H6.25693H6.25563H6.2543H6.25295H6.25158H6.25018H6.24877H6.24732H6.24586H6.24438H6.24287H6.24134H6.23979H6.23821H6.23661H6.23499H6.23335H6.23169H6.23001H6.2283H6.22658H6.22483H6.22306H6.22127H6.21946H6.21762H6.21577H6.21389H6.212H6.21008H6.20815H6.20619H6.20422H6.20222H6.2002H6.19816H6.19611H6.19403H6.19193H6.18982H6.18768H6.18553H6.18335H6.18116H6.17895H6.17672H6.17447H6.1722H6.16991H6.1676H6.16528H6.16293H6.16057H6.15819H6.15579H6.15338H6.15094H6.14849H6.14602H6.14353H6.14103H6.1385H6.13596H6.13341H6.13083H6.12824H6.12563H6.123H6.12036H6.1177H6.11503H6.11234H6.10963H6.1069H6.10416H6.1014H6.09863H6.09584H6.09304H6.09022H6.08738H6.08453H6.08166H6.07878H6.07588H6.07297H6.07004H6.0671H6.06414H6.06117H6.05818H6.05518H6.05216H6.04913H6.04609H6.04303H6.03996H6.03687H6.03377H6.03065H6.02752H6.02438H6.02123H6.01806H6.01488H6.01168H6.00847H6.00525H6.00202H5.99877H5.99551H5.99224H5.98895H5.98566H5.98235H5.97902H5.97569H5.97234H5.96899H5.96562H5.96223H5.95884H5.95544H5.95202H5.94859H5.94515H5.9417H5.93824H5.93477H5.93129H5.92779H5.92429H5.92077H5.91725H5.91371H5.91017H5.90661H5.90304H5.89947H5.89588H5.89229H5.88868H5.88506H5.88144H5.8778H5.87416H5.87051H5.86685H5.86318H5.8595H5.85581H5.85211H5.8484H5.84469H5.84097H5.83723H5.83349H5.82975H5.82599H5.82223H5.81845H5.81467H5.81089H5.80709H5.80329H5.79948H5.79566H5.79184H5.78801H5.78417H5.78033H5.77647H5.77262H5.76875H5.76488H5.761H5.75712H5.75323H5.74933H5.74543H5.74152H5.7376H5.73368H5.72976H5.72583H5.72189H5.71795H5.714H5.71005H5.70609H5.70213H5.69816H5.69419H5.69021H5.68623H5.68224H5.67825H5.67426H5.67026H5.66626H5.66225H5.65824H5.65423H5.65021H5.64619H5.64216H5.63813H5.6341H5.63007H5.62603H5.62199H5.61794H5.6139H5.60985H5.6058H5.60174H5.59768H5.59362H5.58956H5.5855H5.58143H5.57737H5.5733H5.56922H5.56515H5.56108H5.557H5.55292H5.54885H5.54477H5.54068H5.5366H5.53252H5.52844H5.52435H5.52027H5.51618H5.5121H5.50801H5.50392H5.49984H5.49575H5.49167H5.48758H5.48349H5.47941H5.47532H5.47124H5.46716H5.46307H5.45899H5.45491H5.45083H5.44675H5.44268H5.4386H5.43453H5.43045H5.42638H5.42231H5.41824H5.41418H5.41011H5.40605H5.40199H5.39794H5.39388H5.38983H5.38578H5.38173H5.37769H5.37365H5.36961H5.36557H5.36154H5.35751H5.35349H5.34947H5.34545H5.34144H5.33743H5.33342H5.32942H5.32542H5.32142H5.31743H5.31345H5.30947H5.30549H5.30152H5.29755H5.29359H5.28963H5.28568H5.28173H5.27779H5.27385H5.26992H5.26599H5.26207H5.25816H5.25425H5.25035H5.24645H5.24256H5.23868H5.2348H5.23093H5.22706H5.2232H5.21935H5.21551H5.21167H5.20784H5.20401H5.2002H5.19639H5.19258H5.18879H5.185H5.18122H5.17745H5.17369H5.16993H5.16618H5.16244H5.15871H5.15499H5.15127H5.14757H5.14387H5.14018H5.1365H5.13283H5.12917H5.12552H5.12187H5.11824H5.11461H5.111H5.10739H5.1038H5.10021H5.09663H5.09307H5.08951H5.08596H5.08243H5.0789H5.07539H5.07188H5.06839H5.06491H5.06143H5.05797H5.05452H5.05108H5.04766H5.04424H5.04084H5.03744H5.03406H5.03069H5.02733H5.02399H5.02065H5.01733H5.01402H5.01072H5.00744H5.00417H5.00091H4.99766H4.99443H4.9912H4.988H4.9848H4.98162H4.97845H4.97529H4.97215H4.96902H4.96591H4.96281H4.95972H4.95665H4.95359H4.95054H4.94751H4.9445H4.9415H4.93851H4.93554H4.93258H4.92964H4.92671H4.9238H4.9209H4.91802H4.91515H4.9123H4.90946H4.90664H4.90383H4.90105H4.89827H4.89552H4.89277H4.89005H4.88734H4.88465H4.88197H4.87931H4.87667H4.87405H4.87144H4.86885H4.86627H4.86371H4.86117H4.85865H4.85615H4.85366H4.85119H4.84874H4.8463H4.84389H4.84149H4.83911H4.83674H4.8344H4.83208H4.82977H4.82748H4.82521H4.82296H4.82073H4.81852H4.81632H4.81415H4.81199H4.80986H4.80774H4.80565H4.80357H4.80151H4.79948H4.79746H4.79546H4.79349H4.79153H4.78959H4.78768H4.78578H4.78391H4.78205H4.78022H4.77841H4.77662H4.77485H4.7731H4.77137H4.76967H4.76798H4.76632H4.76468H4.76306H4.76147H4.75989H4.75834H4.75681H4.7553H4.75382H4.75235H4.75091H4.74949H4.7481H4.74673H4.74538H4.74405H4.74275H4.74147H4.74021H4.73898H4.73777H4.73659H4.73542H4.73429H4.73317H4.73208H4.73102H4.72998H4.72896H4.72797H4.727H4.72606H4.72514C4.5743 24 4.45198 23.8774 4.45198 23.7273V23.6906L4.44664 23.6544L3.80507 19.2989L3.74215 18.8717H3.31041H0.829738C0.72753 18.8717 0.632413 18.8205 0.576285 18.7356C0.520096 18.6506 0.510226 18.5425 0.549991 18.4488L2.90351 12.9158L2.96384 12.7739L2.93385 12.6228L2.15767 8.70937C2.10858 7.4751 3.03908 6.64636 3.80705 6.64636H7.19254C7.96102 6.64636 8.89144 7.4752 8.84192 8.70932L8.06614 12.6228L8.03618 12.774L8.09648 12.9157L10.4498 18.4491Z" stroke="white"/>
</svg>
