<svg width="16" height="16" viewBox="0 0 16 16" fill="none" xmlns="http://www.w3.org/2000/svg">
<path d="M15.9895 1.99992C15.9895 2.21209 15.9053 2.41556 15.7552 2.56558C15.6052 2.71561 15.4017 2.79989 15.1896 2.79989H7.98986C7.77769 2.79989 7.57422 2.71561 7.42419 2.56558C7.27417 2.41556 7.18989 2.21209 7.18989 1.99992C7.18989 1.78776 7.27417 1.58428 7.42419 1.43426C7.57422 1.28423 7.77769 1.19995 7.98986 1.19995H15.1896C15.4017 1.19995 15.6052 1.28423 15.7552 1.43426C15.9053 1.58428 15.9895 1.78776 15.9895 1.99992ZM15.1896 5.1998H9.58979C9.37763 5.1998 9.17415 5.28408 9.02413 5.4341C8.87411 5.58412 8.78982 5.7876 8.78982 5.99976C8.78982 6.21193 8.87411 6.4154 9.02413 6.56543C9.17415 6.71545 9.37763 6.79973 9.58979 6.79973H15.1896C15.4017 6.79973 15.6052 6.71545 15.7552 6.56543C15.9053 6.4154 15.9895 6.21193 15.9895 5.99976C15.9895 5.7876 15.9053 5.58412 15.7552 5.4341C15.6052 5.28408 15.4017 5.1998 15.1896 5.1998ZM15.1896 9.19964H11.1897C10.9776 9.19964 10.7741 9.28392 10.6241 9.43394C10.474 9.58397 10.3898 9.78744 10.3898 9.99961C10.3898 10.2118 10.474 10.4152 10.6241 10.5653C10.7741 10.7153 10.9776 10.7996 11.1897 10.7996H15.1896C15.4017 10.7996 15.6052 10.7153 15.7552 10.5653C15.9053 10.4152 15.9895 10.2118 15.9895 9.99961C15.9895 9.78744 15.9053 9.58397 15.7552 9.43394C15.6052 9.28392 15.4017 9.19964 15.1896 9.19964ZM15.1896 13.1995H12.7897C12.5775 13.1995 12.374 13.2838 12.224 13.4338C12.074 13.5838 11.9897 13.7873 11.9897 13.9994C11.9897 14.2116 12.074 14.4151 12.224 14.5651C12.374 14.7151 12.5775 14.7994 12.7897 14.7994H15.1896C15.4017 14.7994 15.6052 14.7151 15.7552 14.5651C15.9053 14.4151 15.9895 14.2116 15.9895 13.9994C15.9895 13.7873 15.9053 13.5838 15.7552 13.4338C15.6052 13.2838 15.4017 13.1995 15.1896 13.1995ZM3.19004 0C2.97788 0 2.7744 0.0842821 2.62438 0.234305C2.47436 0.384328 2.39008 0.587804 2.39008 0.799968V13.2683L1.35572 12.2339C1.20484 12.0882 1.00277 12.0076 0.793017 12.0094C0.583268 12.0112 0.382626 12.0953 0.234305 12.2437C0.0859848 12.392 0.0018529 12.5926 3.02409e-05 12.8024C-0.00179242 13.0121 0.0788399 13.2142 0.224561 13.3651L2.62447 15.765C2.69878 15.8395 2.78705 15.8986 2.88424 15.9389C2.98143 15.9792 3.08562 16 3.19084 16C3.29607 16 3.40026 15.9792 3.49745 15.9389C3.59463 15.8986 3.68291 15.8395 3.75722 15.765L6.15713 13.3651C6.30285 13.2142 6.38348 13.0121 6.38166 12.8024C6.37983 12.5926 6.2957 12.392 6.14738 12.2437C5.99906 12.0953 5.79842 12.0112 5.58867 12.0094C5.37892 12.0076 5.17685 12.0882 5.02597 12.2339L3.99001 13.2683V0.799968C3.99001 0.587804 3.90573 0.384328 3.75571 0.234305C3.60568 0.0842821 3.40221 0 3.19004 0Z" fill="#00BDD6"/>
</svg>
