<svg width="16" height="16" viewBox="0 0 16 16" fill="none" xmlns="http://www.w3.org/2000/svg">
<path d="M8 0C3.5815 0.0005625 0.0005625 3.58119 0 8C0.0005625 12.4185 3.5815 15.9994 8 16C12.4185 15.9994 15.9994 12.4185 16 8C15.9994 3.58119 12.4185 0.0005625 8 0ZM12.6468 12.6468C11.4551 13.8371 9.81694 14.5709 8 14.5714C6.18303 14.5709 4.54466 13.8371 3.35322 12.6468C2.16294 11.4554 1.42887 9.81697 1.42856 8C1.42884 6.18303 2.16294 4.54466 3.35322 3.35322C4.54466 2.16294 6.18303 1.42887 8 1.42856C9.81697 1.42884 11.4551 2.16294 12.6468 3.35322C13.837 4.54466 14.5711 6.18303 14.5714 8C14.5712 9.81697 13.8371 11.4554 12.6468 12.6468Z" fill="#00BDD6"/>
<path d="M5.78662 5.16656V11.6571H6.59803V8.8175H10.8572V5.16656H6.59803H5.78662Z" fill="#00BDD6"/>
</svg>
