<svg width="33" height="33" viewBox="0 0 33 33" fill="none" xmlns="http://www.w3.org/2000/svg">
<circle cx="16.5" cy="16.0284" r="16" fill="white"/>
<path d="M25.5606 26.1836C28.7025 23.2791 30.0989 18.4382 29.261 13.8048H16.7632V18.9223H23.8849C23.6056 20.582 22.6281 21.9651 21.2317 22.8642L25.5606 26.1836Z" fill="#4285F4"/>
<path d="M4.89368 22.1035C5.81217 23.8955 7.1294 25.4577 8.74609 26.6723C10.3628 27.8868 12.2367 28.722 14.2267 29.1148C16.2166 29.5077 18.2707 29.448 20.234 28.9403C22.1972 28.4325 24.0185 27.49 25.5605 26.1836L21.2317 22.8642C17.5312 25.2846 11.387 24.3856 9.29237 18.7148L4.89368 22.1035Z" fill="#34A853"/>
<path d="M9.29237 18.7148C8.73381 16.9859 8.73381 15.3954 9.29237 13.6665L4.89368 10.2779C3.28781 13.459 2.79907 17.9541 4.89368 22.1035L9.29237 18.7148Z" fill="#FBBC02"/>
<path d="M9.29237 13.6665C10.8284 8.89476 17.3915 6.12853 21.7902 10.2087L25.6304 6.47431C20.1844 1.28765 9.57165 1.49511 4.89368 10.2779L9.29237 13.6665Z" fill="#EA4335"/>
</svg>
