<svg width="19" height="19" viewBox="0 0 19 19" fill="none" xmlns="http://www.w3.org/2000/svg">
<path d="M18.2451 7.72844L10.543 0.652188C10.5392 0.648989 10.5357 0.645543 10.5324 0.641875C10.2488 0.39075 9.8793 0.251595 9.49599 0.251595C9.11269 0.251595 8.74316 0.39075 8.45958 0.641875L8.44899 0.652188L0.75556 7.72844C0.598628 7.86896 0.473359 8.03967 0.387681 8.22977C0.302003 8.41986 0.25778 8.62521 0.257813 8.83281V17.5C0.257813 17.8978 0.420106 18.2794 0.708991 18.5607C0.997875 18.842 1.38969 19 1.79823 19H6.41949C6.82803 19 7.21984 18.842 7.50873 18.5607C7.79761 18.2794 7.95991 17.8978 7.95991 17.5V13H11.0407V17.5C11.0407 17.8978 11.203 18.2794 11.4919 18.5607C11.7808 18.842 12.1726 19 12.5812 19H17.2024C17.611 19 18.0028 18.842 18.2917 18.5607C18.5805 18.2794 18.7428 17.8978 18.7428 17.5V8.83281C18.7429 8.62521 18.6987 8.41986 18.613 8.22977C18.5273 8.03967 18.402 7.86896 18.2451 7.72844ZM17.2024 17.5H12.5812V13C12.5812 12.6022 12.4189 12.2206 12.13 11.9393C11.8411 11.658 11.4493 11.5 11.0407 11.5H7.95991C7.55136 11.5 7.15955 11.658 6.87067 11.9393C6.58178 12.2206 6.41949 12.6022 6.41949 13V17.5H1.79823V8.83281L1.80882 8.82344L9.50033 1.75L17.1928 8.82156L17.2034 8.83094L17.2024 17.5Z" fill="white"/>
</svg>
