<svg width="25" height="24" viewBox="0 0 25 24" fill="none" xmlns="http://www.w3.org/2000/svg">
<path d="M3.37611 6.911C3.5544 5.09027 4.45161 3.51993 5.60864 3.00331C5.87899 2.88269 6.19589 3.00399 6.31652 3.27423C6.43719 3.54453 6.3159 3.86149 6.0456 3.98216C5.36711 4.28507 4.59875 5.42427 4.44293 7.01549C4.41584 7.29233 4.18261 7.49927 3.91017 7.49927C3.89268 7.49927 3.87508 7.49837 3.85731 7.49668C3.56269 7.46779 3.34729 7.20561 3.37611 6.911ZM4.4045 17.908C4.4045 18.2041 4.16456 18.444 3.86853 18.444H1.65993C1.49846 18.444 1.34563 18.3712 1.24385 18.2458C1.14207 18.1204 1.10224 17.9559 1.13541 17.7979C1.3907 16.582 1.91838 15.5527 2.6763 14.7804C1.33807 13.8077 0.400001 12.276 0.00411472 10.3911C-0.0290592 10.233 0.0107721 10.0684 0.11255 9.94314C0.214329 9.81772 0.367166 9.74494 0.528634 9.74494H0.876621C0.778397 9.01049 0.769596 8.22244 0.850782 7.39354C1.16938 4.13934 2.74051 1.3458 4.76141 0.437806C5.59199 0.0348676 6.5814 0.0348676 7.41193 0.437862C9.43289 1.34586 11.0038 4.13934 11.3224 7.39354C11.4036 8.22244 11.3948 9.01049 11.2965 9.74494H11.6447C11.8062 9.74494 11.9591 9.81777 12.0608 9.94314C12.1626 10.0686 12.2025 10.2331 12.1692 10.3912C12.0481 10.9672 11.8757 11.5158 11.6566 12.0217C11.5389 12.2933 11.2233 12.418 10.9517 12.3005C10.6801 12.1828 10.5553 11.8673 10.6729 11.5957C10.7802 11.3478 10.8749 11.0874 10.9561 10.8168H10.671C10.6636 10.8169 10.6563 10.8169 10.6489 10.8168H1.52419C1.51685 10.8169 1.50946 10.8169 1.50213 10.8168H1.21767C1.68374 12.3635 2.59365 13.5656 3.82368 14.2414C3.98312 14.329 4.08727 14.4916 4.10019 14.6731C4.11311 14.8546 4.0331 15.0302 3.88766 15.1396C3.18773 15.6657 2.66581 16.4296 2.35686 17.372H3.86859C4.16456 17.3721 4.4045 17.612 4.4045 17.908ZM1.95945 9.74494H10.2136C10.3198 9.05331 10.3341 8.29956 10.2556 7.49803C9.97726 4.6554 8.62475 2.15314 6.96645 1.41294C6.9607 1.4104 6.95506 1.40775 6.94941 1.40498C6.41722 1.14467 5.75595 1.14461 5.2237 1.40498C5.21805 1.40775 5.21241 1.4104 5.20671 1.41294C3.54847 2.15309 2.1959 4.6554 1.91759 7.49803C1.83912 8.29956 1.85328 9.05325 1.95945 9.74494ZM24.5251 8.5561C24.6605 8.70143 24.7045 8.90973 24.6393 9.09737C23.9847 10.9819 22.2631 12.43 20.1462 12.8766C19.6961 12.9715 19.2442 13.0178 18.7982 13.0178C17.2457 13.0178 15.7673 12.4568 14.7062 11.4345L13.7826 12.4406C13.5825 12.6587 13.2435 12.6732 13.0253 12.473C12.8073 12.2728 12.7928 11.9337 12.993 11.7157L13.9556 10.667C13.2988 8.03084 14.1096 5.08356 16.1103 2.9039C18.1865 0.642265 21.1954 -0.413657 23.963 0.148889C24.1577 0.188381 24.3145 0.33236 24.3706 0.522941C25.0462 2.82102 24.5771 5.39132 23.1524 7.49882C23.6707 7.78153 24.1377 8.14029 24.5251 8.5561ZM21.5067 7.85736C21.6474 7.70401 21.7814 7.54655 21.9087 7.38525C21.9139 7.37837 21.9192 7.37165 21.9246 7.36511C23.3609 5.53344 23.9227 3.22458 23.4265 1.14253C21.1152 0.796625 18.642 1.73119 16.9 3.62887C15.3251 5.34455 14.5858 7.58858 14.8588 9.68316L16.251 8.16664L15.9301 6.70349C15.8667 6.41435 16.0497 6.12859 16.3388 6.06518C16.6281 6.0016 16.9137 6.18473 16.9771 6.47387L17.1368 7.20167L18.6978 5.50117L18.3769 4.03813C18.3134 3.74899 18.4964 3.46317 18.7855 3.39976C19.0747 3.33634 19.3604 3.51931 19.4239 3.80845L19.5835 4.53625L20.6396 3.38582C20.8397 3.16794 21.1787 3.15321 21.3968 3.3535C21.6149 3.55367 21.6294 3.89274 21.4292 4.1108L20.3732 5.26116L21.1121 5.35815C21.4056 5.39662 21.6123 5.66574 21.5738 5.95922C21.5353 6.25271 21.2664 6.45994 20.9727 6.42095L19.4874 6.22614L17.9265 7.92664L18.6653 8.02356C18.9588 8.06204 19.1655 8.33116 19.127 8.62464C19.0886 8.91813 18.8197 9.12536 18.526 9.08637L17.0407 8.89161L15.6486 10.4081C17.7613 10.5022 19.9316 9.5732 21.5067 7.85736ZM23.5055 9.05427C23.2083 8.78335 22.8653 8.54944 22.4916 8.36269C22.4278 8.43672 22.3627 8.50989 22.2963 8.58227C20.7525 10.264 18.6923 11.2789 16.5997 11.4576C17.5821 11.9308 18.7589 12.0738 19.9249 11.8277C21.5568 11.4835 22.8996 10.4348 23.5055 9.05427ZM20.8317 17.7384C21.1096 18.4369 21.0862 19.2586 20.7689 19.9402C19.7302 22.3246 14.0397 23.8075 12.0488 23.9689C11.7929 23.9897 11.541 24 11.2946 24C8.89894 24.0001 6.97288 23.029 5.94105 21.2744C4.9024 19.508 4.96637 17.2656 6.10399 15.5614C7.35044 13.6942 9.62894 12.8402 12.3555 13.2193C14.3338 13.4941 19.9306 15.2988 20.8317 17.7384ZM19.8339 18.1302C19.8317 18.1249 19.8297 18.1196 19.8278 18.1142C19.5536 17.363 18.3795 16.4702 16.6065 15.6649C14.9224 14.8999 13.146 14.4113 12.2081 14.2812C11.8041 14.225 11.4277 14.1995 11.0774 14.1995C8.69324 14.1995 7.51275 15.3821 6.99568 16.1566C6.08475 17.5213 6.03352 19.3168 6.86518 20.7311C7.40668 21.6519 8.78921 23.1583 11.9622 22.9006C12.906 22.8241 14.7075 22.4376 16.4324 21.7698C18.2484 21.0669 19.4715 20.2426 19.788 19.5082C19.7903 19.5029 19.7926 19.4977 19.795 19.4925C19.9898 19.0775 20.0047 18.5555 19.8339 18.1302ZM15.3083 17.9517C15.5159 18.4161 15.5004 18.9607 15.2666 19.4125C14.7783 20.4159 13.3816 21.1635 11.787 21.2738C11.6575 21.2827 11.5299 21.2871 11.405 21.2871C10.0463 21.2872 8.97088 20.7624 8.42018 19.8174C7.93363 18.9825 7.96274 17.9632 8.49606 17.1573C9.15525 16.1614 10.4109 15.7017 11.9404 15.8954C13.526 16.0964 14.8777 16.9222 15.3083 17.9517ZM14.3284 18.3864C14.3258 18.3807 14.3233 18.375 14.321 18.3692C14.0847 17.7968 13.1448 17.1286 11.8056 16.9588C11.6209 16.9354 11.4424 16.9238 11.2715 16.9238C10.4153 16.9238 9.74465 17.2131 9.39001 17.7489C9.08349 18.2121 9.06679 18.7979 9.3464 19.2777C9.7345 19.9438 10.5968 20.2818 11.7131 20.2044C13.0599 20.1112 14.0363 19.4976 14.3046 18.9396C14.3074 18.934 14.3102 18.9285 14.3131 18.9229C14.3987 18.7597 14.4046 18.5541 14.3284 18.3864Z" fill="white"/>
</svg>
