<svg width="28" height="26" viewBox="0 0 28 26" fill="none" xmlns="http://www.w3.org/2000/svg">
<path d="M12.249 2.22552H13.8653C14.0019 2.22552 14.1372 2.25249 14.2633 2.30488C14.3895 2.35727 14.5041 2.43405 14.6005 2.53082C14.697 2.62759 14.7734 2.74244 14.8253 2.86879C14.8773 2.99514 14.9038 3.1305 14.9033 3.26712V7.57715" stroke="#00BDD6" stroke-miterlimit="10"/>
<path d="M9.16699 2.22898C9.1684 2.49372 9.25505 2.75096 9.41411 2.9626C9.57318 3.17424 9.79618 3.329 10.0501 3.40396C10.304 3.47893 10.5753 3.4701 10.8238 3.3788C11.0723 3.28749 11.2848 3.11856 11.4298 2.89703C11.5625 2.69967 11.6326 2.46683 11.6309 2.22898C11.632 1.99009 11.562 1.75628 11.4298 1.55733C11.2846 1.33555 11.0718 1.1665 10.823 1.07527C10.5741 0.984046 10.3025 0.975508 10.0484 1.05093C9.79429 1.12635 9.5713 1.28171 9.41252 1.49393C9.25374 1.70616 9.16763 1.96393 9.16699 2.22898Z" stroke="#00BDD6" stroke-miterlimit="10"/>
<path d="M27.0001 12.1205C26.9975 12.7695 26.779 13.3992 26.379 13.9103C25.9791 14.4214 25.4205 14.785 24.7912 14.9436V13.4064C24.5726 13.5317 24.3249 13.5974 24.0729 13.5967C23.8214 13.5967 23.5742 13.5324 23.3545 13.41V14.9436C22.8943 14.8268 22.4696 14.5993 22.1172 14.281C21.7649 13.9627 21.4956 13.5632 21.3327 13.1172C21.1698 12.6712 21.1183 12.1921 21.1827 11.7217C21.247 11.2512 21.4252 10.8036 21.7019 10.4177C21.9785 10.0318 22.3452 9.71921 22.7701 9.50721C23.1949 9.29521 23.6652 9.19015 24.1399 9.20116C24.6146 9.21218 25.0794 9.33893 25.494 9.5704C25.9086 9.80188 26.2604 10.1311 26.5188 10.5294C26.8325 11.0008 26.9999 11.5543 27.0001 12.1205Z" stroke="#00BDD6" stroke-miterlimit="10"/>
<path d="M25.562 12.1206C25.5622 12.402 25.4784 12.6771 25.3214 12.9107C25.1865 13.12 25.0015 13.2923 24.7833 13.412C24.5651 13.5318 24.3204 13.5953 24.0715 13.5968C23.8148 13.5973 23.5624 13.531 23.3391 13.4044C23.1158 13.2779 22.9293 13.0955 22.7978 12.875C22.6663 12.6546 22.5944 12.4038 22.5892 12.1472C22.5839 11.8906 22.6455 11.637 22.7679 11.4114C22.8903 11.1858 23.0693 10.9959 23.2872 10.8604C23.5052 10.7248 23.7546 10.6483 24.0111 10.6383C24.2676 10.6283 24.5222 10.6852 24.7501 10.8034C24.9779 10.9216 25.1711 11.097 25.3106 11.3124C25.4737 11.5505 25.5613 11.8321 25.562 12.1206Z" stroke="#00BDD6" stroke-miterlimit="10"/>
<path d="M11.6308 2.22902C11.6325 2.46687 11.5624 2.69971 11.4297 2.89708H11.8607C11.9849 2.89708 12.104 2.848 12.1921 2.76054C12.2803 2.67308 12.3303 2.55432 12.3312 2.43016V2.02429C12.3303 1.90013 12.2803 1.78137 12.1921 1.69391C12.104 1.60645 11.9849 1.55737 11.8607 1.55737H11.4297C11.5619 1.75632 11.6319 1.99014 11.6308 2.22902Z" stroke="#00BDD6" stroke-miterlimit="10"/>
<path d="M4.40785 2.22552H2.79159C2.51534 2.22552 2.25041 2.33526 2.05508 2.5306C1.85974 2.72594 1.75 2.99087 1.75 3.26712V7.57715" stroke="#00BDD6" stroke-miterlimit="10"/>
<path d="M7.48654 2.22898C7.48513 2.49372 7.39848 2.75096 7.23941 2.9626C7.08035 3.17424 6.85735 3.329 6.60343 3.40396C6.34952 3.47893 6.07822 3.4701 5.82972 3.3788C5.58122 3.28749 5.36874 3.11856 5.22377 2.89703C5.09608 2.69805 5.03102 2.46533 5.037 2.22898C5.03588 1.99009 5.1059 1.75628 5.23813 1.55733C5.38328 1.33555 5.59607 1.1665 5.84493 1.07527C6.09378 0.984046 6.36542 0.975508 6.61951 1.05093C6.8736 1.12635 7.0966 1.28171 7.25538 1.49393C7.41416 1.70616 7.50026 1.96393 7.5009 2.22898H7.48654Z" stroke="#00BDD6" stroke-miterlimit="10"/>
<path d="M5.03719 2.22902C5.03547 2.46687 5.10557 2.69971 5.23832 2.89708H4.78577C4.66222 2.89614 4.54401 2.84664 4.45664 2.75928C4.36928 2.67192 4.31979 2.5537 4.31885 2.43016V2.02429C4.3198 1.90013 4.36979 1.78137 4.45792 1.69391C4.54606 1.60645 4.66519 1.55737 4.78936 1.55737H5.22755C5.09911 1.75752 5.03287 1.99125 5.03719 2.22902Z" stroke="#00BDD6" stroke-miterlimit="10"/>
<path d="M24.7913 13.4063V16.2257C24.8147 17.3695 24.6096 18.5064 24.1881 19.5698C23.7666 20.6333 23.1371 21.602 22.3365 22.4191C21.5359 23.2362 20.5803 23.8854 19.5257 24.3285C18.471 24.7717 17.3386 25 16.1946 25C15.0506 25 13.9182 24.7717 12.8635 24.3285C11.8089 23.8854 10.8533 23.2362 10.0527 22.4191C9.25212 21.602 8.62263 20.6333 8.2011 19.5698C7.77958 18.5064 7.5745 17.3695 7.59788 16.2257V15.7301C5.79767 15.5503 4.12829 14.7087 2.91327 13.3682C1.69824 12.0278 1.0241 10.284 1.02148 8.47486V8.2845C1.02148 8.09399 1.09717 7.91127 1.23188 7.77656C1.3666 7.64184 1.54931 7.56616 1.73982 7.56616C1.93034 7.56616 2.11305 7.64184 2.24777 7.77656C2.38248 7.91127 2.45816 8.09399 2.45816 8.2845V8.47486C2.45816 10.0285 3.07535 11.5185 4.17395 12.6171C5.27255 13.7157 6.76257 14.3329 8.31622 14.3329C9.86987 14.3329 11.3599 13.7157 12.4585 12.6171C13.5571 11.5185 14.1743 10.0285 14.1743 8.47486V8.2845C14.1743 8.09399 14.25 7.91127 14.3847 7.77656C14.5194 7.64184 14.7021 7.56616 14.8926 7.56616C15.0831 7.56616 15.2658 7.64184 15.4006 7.77656C15.5353 7.91127 15.611 8.09399 15.611 8.2845V8.47486C15.6083 10.284 14.9342 12.0278 13.7192 13.3682C12.5041 14.7087 10.8348 15.5503 9.03456 15.7301V16.2257C9.01319 17.1795 9.1826 18.1279 9.53283 19.0153C9.88305 19.9027 10.407 20.7112 11.074 21.3933C11.741 22.0754 12.5376 22.6173 13.4169 22.9873C14.2962 23.3574 15.2406 23.548 16.1946 23.548C17.1486 23.548 18.093 23.3574 18.9723 22.9873C19.8516 22.6173 20.6482 22.0754 21.3152 21.3933C21.9822 20.7112 22.5062 19.9027 22.8564 19.0153C23.2066 18.1279 23.376 17.1795 23.3546 16.2257V13.4099C23.5743 13.5323 23.8215 13.5966 24.073 13.5966C24.325 13.5973 24.5727 13.5316 24.7913 13.4063Z" stroke="#00BDD6" stroke-miterlimit="10"/>
</svg>
