<svg width="21" height="19" viewBox="0 0 21 19" fill="none" xmlns="http://www.w3.org/2000/svg">
<path d="M0.796901 17.0003V17V2C0.796901 1.61461 0.949998 1.245 1.22251 0.972485C1.49503 0.699972 1.86463 0.546875 2.25003 0.546875H18.75C19.1354 0.546875 19.505 0.699972 19.7775 0.972485C20.0501 1.245 20.2032 1.61461 20.2032 2V14C20.2032 14.3854 20.0501 14.755 19.7775 15.0275C19.505 15.3 19.1354 15.4531 18.75 15.4531H6.2344H6.21679L6.20353 15.4647L3.19228 18.1L3.1921 18.0998L3.18869 18.1035C3.18769 18.1046 3.18656 18.1056 3.18533 18.1064L3.18512 18.1061L3.18061 18.1099C2.92072 18.3307 2.59102 18.4523 2.25001 18.4531C2.0379 18.4527 1.82841 18.4062 1.63602 18.3169L1.63582 18.3168C1.38415 18.2013 1.17114 18.0157 1.02234 17.7822C0.873535 17.5487 0.795259 17.2772 0.796901 17.0003ZM18.75 14.0469H18.7969V14V2V1.95312H18.75H2.25003H2.20315V2V17V17.1035L2.28094 17.0352L5.28844 14.3971L5.28844 14.3971L5.2892 14.3964L5.2997 14.3868C5.56157 14.1671 5.89252 14.0467 6.23438 14.0469H6.2344H18.75ZM9.4219 8C9.4219 7.78677 9.48513 7.57832 9.6036 7.40103C9.72206 7.22373 9.89044 7.08554 10.0874 7.00394C10.2844 6.92234 10.5012 6.90099 10.7104 6.94259C10.9195 6.98419 11.1116 7.08687 11.2624 7.23765C11.4132 7.38843 11.5158 7.58053 11.5574 7.78967C11.599 7.9988 11.5777 8.21558 11.4961 8.41258C11.4145 8.60958 11.2763 8.77796 11.099 8.89643C10.9217 9.01489 10.7133 9.07812 10.5 9.07812C10.2141 9.07812 9.93987 8.96454 9.73768 8.76235C9.53549 8.56016 9.4219 8.28594 9.4219 8ZM5.2969 8C5.2969 7.78677 5.36013 7.57832 5.4786 7.40103C5.59706 7.22373 5.76544 7.08554 5.96245 7.00394C6.15945 6.92234 6.37622 6.90099 6.58536 6.94259C6.79449 6.98419 6.9866 7.08687 7.13738 7.23765C7.28816 7.38843 7.39084 7.58053 7.43244 7.78967C7.47404 7.9988 7.45269 8.21558 7.37108 8.41258C7.28948 8.60958 7.1513 8.77796 6.974 8.89643C6.7967 9.01489 6.58826 9.07812 6.37503 9.07812C6.08909 9.07812 5.81486 8.96454 5.61268 8.76235C5.41049 8.56016 5.2969 8.28594 5.2969 8ZM13.5469 8C13.5469 7.78677 13.6101 7.57832 13.7286 7.40103C13.8471 7.22373 14.0154 7.08554 14.2124 7.00394C14.4094 6.92234 14.6262 6.90099 14.8354 6.94259C15.0445 6.98419 15.2366 7.08687 15.3874 7.23765C15.5382 7.38843 15.6408 7.58053 15.6824 7.78967C15.724 7.9988 15.7027 8.21558 15.6211 8.41258C15.5395 8.60958 15.4013 8.77796 15.224 8.89643C15.0467 9.01489 14.8383 9.07812 14.625 9.07812C14.3391 9.07812 14.0649 8.96454 13.8627 8.76235C13.6605 8.56016 13.5469 8.28594 13.5469 8Z" fill="#F3F3F3" stroke="#F3F3F3" stroke-width="0.09375"/>
</svg>
