<svg width="20" height="19" viewBox="0 0 20 19" fill="none" xmlns="http://www.w3.org/2000/svg">
<path d="M0.296878 17.0003V17V2C0.296878 1.61461 0.449975 1.245 0.722489 0.972485C0.995002 0.699972 1.36461 0.546875 1.75 0.546875H18.25C18.6354 0.546875 19.005 0.699972 19.2775 0.972485C19.55 1.245 19.7031 1.61461 19.7031 2V14C19.7031 14.3854 19.55 14.755 19.2775 15.0275C19.005 15.3 18.6354 15.4531 18.25 15.4531H5.73438H5.71676L5.70351 15.4647L2.69226 18.1L2.69208 18.0998L2.68867 18.1035C2.68767 18.1046 2.68654 18.1056 2.6853 18.1064L2.6851 18.1061L2.68059 18.1099C2.4207 18.3307 2.091 18.4523 1.74999 18.4531C1.53787 18.4527 1.32838 18.4062 1.13599 18.3169L1.1358 18.3168C0.884132 18.2013 0.67112 18.0157 0.522316 17.7822C0.373512 17.5487 0.295236 17.2772 0.296878 17.0003ZM18.25 14.0469H18.2969V14V2V1.95312H18.25H1.75H1.70313V2V17V17.1035L1.78091 17.0352L4.78841 14.3971L4.78842 14.3971L4.78918 14.3964L4.79968 14.3868C5.06154 14.1671 5.3925 14.0467 5.73436 14.0469H5.73438H18.25ZM8.92188 8C8.92188 7.78677 8.98511 7.57832 9.10358 7.40103C9.22204 7.22373 9.39042 7.08554 9.58742 7.00394C9.78442 6.92234 10.0012 6.90099 10.2103 6.94259C10.4195 6.98419 10.6116 7.08687 10.7624 7.23765C10.9131 7.38843 11.0158 7.58053 11.0574 7.78967C11.099 7.9988 11.0777 8.21558 10.9961 8.41258C10.9145 8.60958 10.7763 8.77796 10.599 8.89643C10.4217 9.01489 10.2132 9.07812 10 9.07812C9.71407 9.07812 9.43984 8.96454 9.23765 8.76235C9.03547 8.56016 8.92188 8.28594 8.92188 8ZM4.79688 8C4.79688 7.78677 4.86011 7.57832 4.97858 7.40103C5.09704 7.22373 5.26542 7.08554 5.46242 7.00394C5.65942 6.92234 5.8762 6.90099 6.08534 6.94259C6.29447 6.98419 6.48658 7.08687 6.63735 7.23765C6.78813 7.38843 6.89081 7.58053 6.93241 7.78967C6.97401 7.9988 6.95266 8.21558 6.87106 8.41258C6.78946 8.60958 6.65127 8.77796 6.47398 8.89643C6.29668 9.01489 6.08824 9.07812 5.875 9.07812C5.58907 9.07812 5.31484 8.96454 5.11265 8.76235C4.91047 8.56016 4.79688 8.28594 4.79688 8ZM13.0469 8C13.0469 7.78677 13.1101 7.57832 13.2286 7.40103C13.347 7.22373 13.5154 7.08554 13.7124 7.00394C13.9094 6.92234 14.1262 6.90099 14.3353 6.94259C14.5445 6.98419 14.7366 7.08687 14.8874 7.23765C15.0381 7.38843 15.1408 7.58053 15.1824 7.78967C15.224 7.9988 15.2027 8.21558 15.1211 8.41258C15.0395 8.60958 14.9013 8.77796 14.724 8.89643C14.5467 9.01489 14.3382 9.07812 14.125 9.07812C13.8391 9.07812 13.5648 8.96454 13.3627 8.76235C13.1605 8.56016 13.0469 8.28594 13.0469 8Z" fill="#F3F3F3" stroke="#F3F3F3" stroke-width="0.09375"/>
</svg>
