<svg width="21" height="25" viewBox="0 0 21 25" fill="none" xmlns="http://www.w3.org/2000/svg">
<path d="M19.2926 17.2509L19.2932 17.2517L20.1567 17.0708L19.5549 17.569C19.5551 17.5692 19.5553 17.5695 19.5555 17.5697C19.6896 17.732 19.7745 17.9293 19.8001 18.1383C19.8257 18.3476 19.7908 18.5599 19.6994 18.75L19.6989 18.7512C19.5028 19.161 19.0851 19.4321 18.572 19.4321H2.0237C1.50461 19.4321 1.08452 19.1588 0.890324 18.7496L0.889245 18.7473C0.798327 18.5573 0.763739 18.3453 0.789577 18.1363C0.815415 17.9272 0.900595 17.73 1.03504 17.5678L1.03506 17.5678L1.03962 17.5622C1.11517 17.4694 1.18948 17.3798 1.26521 17.2885L1.29706 17.2501L1.29724 17.2499L1.32139 17.2207C1.89841 16.5243 2.4463 15.8631 2.81831 14.8369C3.18953 13.8129 3.36854 12.4822 3.36854 10.4298C3.36854 8.69977 3.71492 7.3397 4.36416 6.28466C5.00905 5.2367 5.99052 4.42792 7.37306 3.85877L7.41611 3.84105L7.45675 3.81834C7.54902 3.76678 7.63202 3.70018 7.70234 3.62127L7.81785 3.49163L7.86758 3.32528C8.25198 2.03935 9.26157 1.28125 10.2949 1.28125C11.3282 1.28125 12.3382 2.03929 12.7227 3.32667L12.7701 3.4855L12.8779 3.61138C12.9506 3.69618 13.0377 3.76743 13.1354 3.82175L13.1755 3.84405L13.2179 3.86151C14.4064 4.35047 15.2682 4.99388 15.8974 5.81656L15.8978 5.81713C16.7516 6.93133 17.2218 8.46351 17.2218 10.4314C17.2218 12.4831 17.4011 13.8134 17.7724 14.8374C18.144 15.8619 18.6907 16.523 19.2661 17.2188L19.2926 17.2509Z" stroke="white" stroke-width="1.5625"/>
<mask id="path-2-inside-1_851_2237" fill="white">
<path d="M10.2961 24.5C11.0702 24.4994 11.8298 24.2892 12.4942 23.8918C13.1586 23.4945 13.703 22.9247 14.0698 22.2429C14.0871 22.2103 14.0956 22.1737 14.0946 22.1367C14.0935 22.0998 14.0829 22.0637 14.0638 22.0321C14.0448 22.0004 14.0178 21.9743 13.9856 21.9561C13.9534 21.938 13.9171 21.9284 13.8801 21.9285H6.71309C6.67609 21.9283 6.63968 21.9378 6.60741 21.9559C6.57515 21.974 6.54812 22.0002 6.52897 22.0319C6.50982 22.0635 6.4992 22.0996 6.49814 22.1366C6.49707 22.1736 6.50561 22.2102 6.52291 22.2429C6.88963 22.9246 7.434 23.4943 8.09829 23.8917C8.76257 24.2891 9.52201 24.4993 10.2961 24.5Z"/>
</mask>
<path d="M10.2961 24.5L10.2946 26.0625L10.2973 26.0625L10.2961 24.5ZM14.0698 22.2429L15.4458 22.9832L15.451 22.9734L14.0698 22.2429ZM13.8801 21.9285V23.491L13.8817 23.491L13.8801 21.9285ZM6.71309 21.9285L6.70761 23.491H6.71309V21.9285ZM6.52291 22.2429L5.14164 22.9734L5.14689 22.9832L6.52291 22.2429ZM10.2973 26.0625C11.3535 26.0616 12.3898 25.7749 13.2962 25.2328L11.6921 22.5509C11.2698 22.8035 10.7869 22.9371 10.2948 22.9375L10.2973 26.0625ZM13.2962 25.2328C14.2026 24.6907 14.9454 23.9133 15.4458 22.9832L12.6938 21.5027C12.4606 21.9361 12.1145 22.2983 11.6921 22.5509L13.2962 25.2328ZM15.451 22.9734C15.5943 22.7025 15.665 22.3991 15.6564 22.0928L12.5327 22.1806C12.5261 21.9482 12.5798 21.718 12.6885 21.5125L15.451 22.9734ZM15.6564 22.0928C15.6478 21.7865 15.5601 21.4876 15.4019 21.2252L12.7258 22.839C12.6057 22.6399 12.5392 22.4131 12.5327 22.1806L15.6564 22.0928ZM15.4019 21.2252C15.2436 20.9628 15.0202 20.7457 14.7532 20.5952L13.218 23.3171C13.0155 23.2028 12.8459 23.0381 12.7258 22.839L15.4019 21.2252ZM14.7532 20.5952C14.4863 20.4446 14.185 20.3657 13.8786 20.366L13.8817 23.491C13.6492 23.4912 13.4205 23.4313 13.218 23.3171L14.7532 20.5952ZM13.8801 20.366H6.71309V23.491H13.8801V20.366ZM6.71858 20.366C6.41174 20.3649 6.10986 20.4433 5.84234 20.5935L7.37248 23.3183C7.1695 23.4323 6.94044 23.4918 6.70761 23.491L6.71858 20.366ZM5.84234 20.5935C5.57482 20.7438 5.35075 20.9607 5.19196 21.2233L7.86598 22.8404C7.7455 23.0397 7.57547 23.2043 7.37248 23.3183L5.84234 20.5935ZM5.19196 21.2233C5.03318 21.4858 4.94509 21.785 4.93628 22.0917L8.05999 22.1815C8.0533 22.4142 7.98647 22.6412 7.86598 22.8404L5.19196 21.2233ZM4.93628 22.0917C4.92747 22.3985 4.99824 22.7022 5.14167 22.9734L7.90414 21.5125C8.01297 21.7183 8.06668 21.9487 8.05999 22.1815L4.93628 22.0917ZM5.14689 22.9832C5.64722 23.9132 6.3899 24.6905 7.29618 25.2326L8.90039 22.5508C8.47811 22.2982 8.13205 21.936 7.89892 21.5027L5.14689 22.9832ZM7.29618 25.2326C8.20246 25.7747 9.23856 26.0615 10.2946 26.0625L10.2975 22.9375C9.80546 22.937 9.32268 22.8034 8.90039 22.5508L7.29618 25.2326Z" fill="white" mask="url(#path-2-inside-1_851_2237)"/>
</svg>
