<svg width="14" height="24" viewBox="0 0 14 24" fill="none" xmlns="http://www.w3.org/2000/svg">
<path d="M6.80588 2.18821C6.80588 3.12125 6.05025 3.87691 5.119 3.87691C4.18776 3.87691 3.43213 3.12125 3.43213 2.18821C3.43213 1.25518 4.18776 0.499512 5.119 0.499512C6.05025 0.499512 6.80588 1.25518 6.80588 2.18821Z" stroke="white"/>
<path d="M12.5333 11.9057L12.5333 11.9047C12.5333 11.9052 12.5322 11.8905 12.5245 11.8564C12.5172 11.8242 12.5062 11.784 12.491 11.7361C12.4606 11.64 12.4188 11.5287 12.3724 11.4155C12.2794 11.1881 12.1792 10.9797 12.1469 10.917L12.1466 10.9164C11.2606 9.18951 10.3342 7.48281 9.35622 5.80867L9.35615 5.80856C9.05558 5.29372 8.65222 5.05082 8.2428 4.97622C7.81979 4.89914 7.35276 4.99613 6.94655 5.23438C6.54039 5.47261 6.22709 5.83328 6.08711 6.24159C5.95157 6.63694 5.96596 7.11012 6.26833 7.62748L12.5333 11.9057ZM12.5333 11.9057C12.6257 13.5757 12.7179 15.4147 12.8102 17.2556L12.8123 17.2962C12.9038 19.1229 12.9955 20.9503 13.0871 22.612L13.0871 22.6123C13.1035 22.9067 13.0058 23.098 12.8745 23.2239C12.7331 23.3595 12.5224 23.4468 12.2883 23.4588C12.0542 23.4707 11.8335 23.4054 11.6761 23.2839C11.5294 23.1706 11.4109 22.9893 11.3943 22.6967M12.5333 11.9057L11.3943 22.6967M10.4918 14.8825L10.1582 14.5101L10.1581 14.5102L10.1577 14.5105L10.1561 14.5119L10.1499 14.5175L10.1255 14.5393L10.0329 14.6222C9.95299 14.6936 9.83885 14.7956 9.70182 14.9178C9.4277 15.1623 9.06222 15.4876 8.69638 15.8111C8.33016 16.1349 7.96506 16.4556 7.69115 16.6915C7.55361 16.81 7.44214 16.9044 7.36596 16.9665C7.32659 16.9986 7.30307 17.0169 7.29235 17.0247C7.29039 17.0261 7.28949 17.0267 7.28952 17.0267C7.28961 17.0266 7.29956 17.0195 7.31526 17.0107L7.31584 17.0103C7.32219 17.0067 7.36351 16.9831 7.42214 16.9671C7.44686 16.9604 7.53456 16.9372 7.64621 16.9587C7.70918 16.9708 7.79195 16.9995 7.87023 17.0644C7.89703 17.0866 7.92052 17.1107 7.9409 17.1361C7.7558 17.2946 7.62166 17.4058 7.57197 17.4392L7.07168 17.5915C7.07462 17.6014 7.07736 17.61 7.07946 17.6165L7.08225 17.625L7.08418 17.6309C7.08438 17.6315 7.08456 17.6321 7.08472 17.6325C7.28363 18.4183 7.52412 19.2612 7.76222 20.0957L7.76953 20.1213C8.01175 20.9703 8.25107 21.81 8.44716 22.5887L8.44718 22.5888C8.51876 22.873 8.456 23.0603 8.3593 23.1869C8.25246 23.3268 8.06717 23.4382 7.835 23.4806C7.36429 23.5665 6.89804 23.3552 6.76612 22.8322L6.76608 22.832C6.55653 22.0024 5.78625 19.0138 5.39053 17.4798C5.28849 17.0838 5.40786 16.6631 5.70285 16.3807L5.7029 16.3806L8.93864 13.282L9.20818 13.0239L9.0374 12.6921C8.54212 11.7298 8.03289 10.7729 7.51047 9.82338L7.19435 9.24883L6.72399 9.70578C5.56378 10.8329 3.97454 11.3897 2.03954 11.1869L1.72143 11.1536L10.4918 14.8825ZM10.4918 14.8825L10.1582 14.5101M10.4918 14.8825L10.1582 14.5101M10.9371 13.8123L10.9912 14.8566C11.0404 15.808 11.0892 16.7796 11.1378 17.7474C11.2236 19.4533 11.3087 21.1471 11.3943 22.6966C11.3943 22.6966 11.3943 22.6966 11.3943 22.6967M10.9371 13.8123L11.3943 22.6967M10.9371 13.8123L10.1582 14.5101M10.9371 13.8123L10.1582 14.5101" stroke="white"/>
</svg>
