<svg width="17" height="20" viewBox="0 0 17 20" fill="none" xmlns="http://www.w3.org/2000/svg">
<path d="M16.3641 4.21938L12.6141 0.469375C12.5444 0.399749 12.4617 0.344539 12.3706 0.306898C12.2796 0.269257 12.182 0.249923 12.0835 0.25H4.5835C4.18567 0.25 3.80414 0.408035 3.52284 0.68934C3.24153 0.970645 3.0835 1.35218 3.0835 1.75V3.25H1.5835C1.18567 3.25 0.80414 3.40804 0.522836 3.68934C0.241531 3.97064 0.0834961 4.35218 0.0834961 4.75V18.25C0.0834961 18.6478 0.241531 19.0294 0.522836 19.3107C0.80414 19.592 1.18567 19.75 1.5835 19.75H12.0835C12.4813 19.75 12.8629 19.592 13.1442 19.3107C13.4255 19.0294 13.5835 18.6478 13.5835 18.25V16.75H15.0835C15.4813 16.75 15.8629 16.592 16.1442 16.3107C16.4255 16.0294 16.5835 15.6478 16.5835 15.25V4.75C16.5836 4.65148 16.5642 4.55391 16.5266 4.46286C16.489 4.37182 16.4337 4.28908 16.3641 4.21938ZM12.0835 18.25H1.5835V4.75H8.77318L12.0835 8.06031V15.985C12.0835 15.9906 12.0835 15.9953 12.0835 16C12.0835 16.0047 12.0835 16.0094 12.0835 16.015V18.25ZM15.0835 15.25H13.5835V7.75C13.5836 7.65148 13.5642 7.55391 13.5266 7.46286C13.489 7.37182 13.4337 7.28908 13.3641 7.21937L9.61412 3.46938C9.54442 3.39975 9.46168 3.34454 9.37063 3.3069C9.27959 3.26926 9.18202 3.24992 9.0835 3.25H4.5835V1.75H11.7732L15.0835 5.06031V15.25ZM9.8335 12.25C9.8335 12.4489 9.75448 12.6397 9.61383 12.7803C9.47317 12.921 9.28241 13 9.0835 13H4.5835C4.38458 13 4.19382 12.921 4.05317 12.7803C3.91251 12.6397 3.8335 12.4489 3.8335 12.25C3.8335 12.0511 3.91251 11.8603 4.05317 11.7197C4.19382 11.579 4.38458 11.5 4.5835 11.5H9.0835C9.28241 11.5 9.47317 11.579 9.61383 11.7197C9.75448 11.8603 9.8335 12.0511 9.8335 12.25ZM9.8335 15.25C9.8335 15.4489 9.75448 15.6397 9.61383 15.7803C9.47317 15.921 9.28241 16 9.0835 16H4.5835C4.38458 16 4.19382 15.921 4.05317 15.7803C3.91251 15.6397 3.8335 15.4489 3.8335 15.25C3.8335 15.0511 3.91251 14.8603 4.05317 14.7197C4.19382 14.579 4.38458 14.5 4.5835 14.5H9.0835C9.28241 14.5 9.47317 14.579 9.61383 14.7197C9.75448 14.8603 9.8335 15.0511 9.8335 15.25Z" fill="#00BDD6"/>
</svg>
