<svg width="25" height="24" viewBox="0 0 25 24" fill="none" xmlns="http://www.w3.org/2000/svg">
<path d="M4.97499 5.25V18.75C4.97499 18.9489 4.89384 19.1397 4.7494 19.2803C4.60496 19.421 4.40905 19.5 4.20478 19.5C4.00051 19.5 3.8046 19.421 3.66016 19.2803C3.51572 19.1397 3.43457 18.9489 3.43457 18.75V5.25C3.43457 5.05109 3.51572 4.86032 3.66016 4.71967C3.8046 4.57902 4.00051 4.5 4.20478 4.5C4.40905 4.5 4.60496 4.57902 4.7494 4.71967C4.89384 4.86032 4.97499 5.05109 4.97499 5.25ZM13.0622 10.3594L11.1367 10.9688V9C11.1367 8.80109 11.0555 8.61032 10.9111 8.46967C10.7666 8.32902 10.5707 8.25 10.3665 8.25C10.1622 8.25 9.96628 8.32902 9.82184 8.46967C9.67739 8.61032 9.59625 8.80109 9.59625 9V10.9688L7.67072 10.3594C7.47641 10.2972 7.2647 10.3128 7.08216 10.4026C6.89962 10.4924 6.76121 10.6492 6.69737 10.8384C6.63354 11.0277 6.64951 11.2338 6.74177 11.4116C6.83403 11.5893 6.99503 11.7241 7.18934 11.7863L9.11487 12.3947L7.92682 13.9884C7.86403 14.0679 7.81824 14.1588 7.79214 14.2557C7.76604 14.3527 7.76017 14.4538 7.77487 14.553C7.78957 14.6522 7.82455 14.7475 7.87773 14.8334C7.93092 14.9192 8.00123 14.9938 8.08452 15.0527C8.1678 15.1116 8.26237 15.1536 8.36263 15.1764C8.46289 15.1991 8.56682 15.202 8.66825 15.1849C8.76969 15.1679 8.86659 15.1312 8.95322 15.077C9.03986 15.0229 9.11446 14.9524 9.17263 14.8697L10.3607 13.2759L11.5487 14.8697C11.6069 14.9524 11.6815 15.0229 11.7681 15.077C11.8548 15.1312 11.9517 15.1679 12.0531 15.1849C12.1545 15.202 12.2585 15.1991 12.3587 15.1764C12.459 15.1536 12.5536 15.1116 12.6368 15.0527C12.7201 14.9938 12.7904 14.9192 12.8436 14.8334C12.8968 14.7475 12.9318 14.6522 12.9465 14.553C12.9612 14.4538 12.9553 14.3527 12.9292 14.2557C12.9031 14.1588 12.8573 14.0679 12.7945 13.9884L11.6065 12.3947L13.532 11.7863C13.7178 11.719 13.8697 11.5846 13.9563 11.411C14.0429 11.2375 14.0574 11.0381 13.9969 10.8543C13.9364 10.6706 13.8055 10.5166 13.6314 10.4244C13.4573 10.3322 13.2535 10.3089 13.0622 10.3594ZM23.2675 10.8412C23.2043 10.6538 23.0679 10.498 22.8877 10.4078C22.7075 10.3176 22.498 10.3002 22.3047 10.3594L20.3792 10.9688V9C20.3792 8.80109 20.298 8.61032 20.1536 8.46967C20.0092 8.32902 19.8132 8.25 19.609 8.25C19.4047 8.25 19.2088 8.32902 19.0644 8.46967C18.9199 8.61032 18.8388 8.80109 18.8388 9V10.9688L16.9132 10.3603C16.817 10.3298 16.7156 10.3181 16.6147 10.3258C16.5139 10.3335 16.4155 10.3605 16.3254 10.4052C16.2352 10.4499 16.155 10.5115 16.0893 10.5864C16.0235 10.6613 15.9736 10.748 15.9423 10.8417C15.911 10.9354 15.899 11.0342 15.9069 11.1324C15.9148 11.2306 15.9425 11.3264 15.9884 11.4142C16.0343 11.502 16.0975 11.5801 16.1744 11.6441C16.2513 11.7081 16.3405 11.7567 16.4367 11.7872L18.3622 12.3956L17.1741 13.9894C17.1114 14.0688 17.0656 14.1597 17.0395 14.2567C17.0134 14.3536 17.0075 14.4547 17.0222 14.5539C17.0369 14.6531 17.0719 14.7485 17.1251 14.8343C17.1782 14.9201 17.2486 14.9947 17.3318 15.0536C17.4151 15.1125 17.5097 15.1546 17.61 15.1773C17.7102 15.2 17.8141 15.2029 17.9156 15.1859C18.017 15.1688 18.1139 15.1321 18.2006 15.078C18.2872 15.0238 18.3618 14.9533 18.42 14.8706L19.608 13.2769L20.7961 14.8706C20.8542 14.9533 20.9288 15.0238 21.0155 15.078C21.1021 15.1321 21.199 15.1688 21.3004 15.1859C21.4019 15.2029 21.5058 15.2 21.6061 15.1773C21.7063 15.1546 21.8009 15.1125 21.8842 15.0536C21.9675 14.9947 22.0378 14.9201 22.091 14.8343C22.1441 14.7485 22.1791 14.6531 22.1938 14.5539C22.2085 14.4547 22.2026 14.3536 22.1765 14.2567C22.1505 14.1597 22.1047 14.0688 22.0419 13.9894L20.8538 12.3956L22.7793 11.7872C22.9727 11.7245 23.1326 11.5897 23.2241 11.4124C23.3155 11.2351 23.3312 11.0297 23.2675 10.8412Z" fill="#00BDD6"/>
</svg>
