<svg width="25" height="24" viewBox="0 0 25 24" fill="none" xmlns="http://www.w3.org/2000/svg">
<path d="M22.4087 19.875C20.9424 17.4066 18.6828 15.6366 16.0458 14.7975C17.3502 14.0414 18.3636 12.8892 18.9304 11.5179C19.4973 10.1467 19.5862 8.63213 19.1835 7.2069C18.7808 5.78167 17.9088 4.52456 16.7014 3.62862C15.494 2.73268 14.0179 2.24745 12.4999 2.24745C10.9819 2.24745 9.50586 2.73268 8.29846 3.62862C7.09105 4.52456 6.21906 5.78167 5.81638 7.2069C5.4137 8.63213 5.5026 10.1467 6.06943 11.5179C6.63627 12.8892 7.64969 14.0414 8.95407 14.7975C6.31707 15.6356 4.05747 17.4056 2.59118 19.875C2.53741 19.9604 2.50174 20.0554 2.48629 20.1544C2.47083 20.2534 2.4759 20.3544 2.50119 20.4515C2.52647 20.5486 2.57148 20.6398 2.63353 20.7196C2.69559 20.7995 2.77345 20.8665 2.86251 20.9165C2.95157 20.9666 3.05004 20.9989 3.15209 21.0113C3.25415 21.0237 3.35773 21.0161 3.45672 20.989C3.55572 20.9618 3.64812 20.9156 3.72848 20.8531C3.80884 20.7906 3.87552 20.713 3.92461 20.625C5.73845 17.5725 8.94445 15.75 12.4999 15.75C16.0554 15.75 19.2614 17.5725 21.0752 20.625C21.1243 20.713 21.191 20.7906 21.2714 20.8531C21.3517 20.9156 21.4441 20.9618 21.5431 20.989C21.6421 21.0161 21.7457 21.0237 21.8478 21.0113C21.9498 20.9989 22.0483 20.9666 22.1373 20.9165C22.2264 20.8665 22.3043 20.7995 22.3663 20.7196C22.4284 20.6398 22.4734 20.5486 22.4987 20.4515C22.524 20.3544 22.529 20.2534 22.5136 20.1544C22.4981 20.0554 22.4624 19.9604 22.4087 19.875ZM7.10846 9C7.10846 7.96165 7.42466 6.94662 8.01709 6.08326C8.60951 5.2199 9.45154 4.54699 10.4367 4.14963C11.4219 3.75227 12.5059 3.64831 13.5518 3.85088C14.5976 4.05345 15.5583 4.55347 16.3123 5.28769C17.0663 6.02192 17.5798 6.95738 17.7878 7.97578C17.9958 8.99418 17.8891 10.0498 17.481 11.0091C17.0729 11.9684 16.3819 12.7883 15.4953 13.3652C14.6086 13.9421 13.5663 14.25 12.4999 14.25C11.0705 14.2485 9.70004 13.6949 8.68927 12.7107C7.67851 11.7264 7.10999 10.3919 7.10846 9Z" fill="white"/>
</svg>
