<svg width="24" height="25" viewBox="0 0 24 25" fill="none" xmlns="http://www.w3.org/2000/svg">
<rect y="3.98532" width="24" height="17.1429" rx="1.71429" fill="white"/>
<mask id="mask0_750_287" style="mask-type:alpha" maskUnits="userSpaceOnUse" x="0" y="3" width="24" height="19">
<rect y="3.98532" width="24" height="17.1429" rx="1.71429" fill="white"/>
</mask>
<g mask="url(#mask0_750_287)">
<rect y="3.98532" width="24" height="17.1429" fill="#128C4B"/>
<path fill-rule="evenodd" clip-rule="evenodd" d="M5.71484 14.271H14.8577V13.4813C14.8577 13.0565 15.3047 12.7802 15.6847 12.9702L16.0006 13.1282V14.271H17.7148C18.0304 14.271 18.2863 14.5268 18.2863 14.8424V15.4139C18.2863 16.045 17.7746 16.5567 17.1434 16.5567H15.4291C15.1135 16.5567 14.8577 16.3009 14.8577 15.9853V15.4139H7.09439C6.94284 15.4139 6.7975 15.3537 6.69033 15.2465L5.71484 14.271Z" fill="white"/>
<path fill-rule="evenodd" clip-rule="evenodd" d="M5.71484 10.9608C5.71484 10.885 5.74495 10.8123 5.79853 10.7588L6.08424 10.473C6.19582 10.3615 6.19582 10.1806 6.08424 10.069L5.79853 9.78327C5.74495 9.72969 5.71484 9.65702 5.71484 9.58124V8.84245C5.71484 8.68465 5.84276 8.55673 6.00056 8.55673H6.63943C6.75998 8.55673 6.8577 8.65445 6.8577 8.775C6.8577 9.00532 7.16819 9.07861 7.27119 8.87261L7.35637 8.70224C7.40096 8.61306 7.49211 8.55673 7.59182 8.55673H8.8577C9.0155 8.55673 9.14342 8.68465 9.14342 8.84245C9.14342 9.00024 9.0155 9.12816 8.8577 9.12816H8.28627C8.12848 9.12816 8.00056 9.25608 8.00056 9.41388C8.00056 9.57167 8.12848 9.69959 8.28627 9.69959H8.8577C9.0155 9.69959 9.14342 9.82751 9.14342 9.9853V11.6996C9.14342 11.8574 9.0155 11.9853 8.8577 11.9853H8.28627C8.12848 11.9853 8.00056 11.8574 8.00056 11.6996V11.1282C8.00056 10.9704 8.12848 10.8424 8.28627 10.8424C8.44407 10.8424 8.57199 10.7145 8.57199 10.5567C8.57199 10.3989 8.44407 10.271 8.28627 10.271H7.71484C7.55705 10.271 7.42913 10.3989 7.42913 10.5567V11.6996C7.42913 11.8574 7.30121 11.9853 7.14342 11.9853C6.98562 11.9853 6.8577 11.8574 6.8577 11.6996V11.1282C6.8577 10.9704 6.72978 10.8424 6.57199 10.8424C6.41419 10.8424 6.28627 10.9704 6.28627 11.1282V11.6996C6.28627 11.8574 6.15835 11.9853 6.00056 11.9853C5.84276 11.9853 5.71484 11.8574 5.71484 11.6996V10.9608Z" fill="white"/>
<path fill-rule="evenodd" clip-rule="evenodd" d="M14.8574 10.9608C14.8574 10.885 14.8875 10.8123 14.9411 10.7588L15.2268 10.473C15.3384 10.3615 15.3384 10.1806 15.2268 10.069L14.9411 9.78327C14.8875 9.72969 14.8574 9.65702 14.8574 9.58124V8.84245C14.8574 8.68465 14.9853 8.55673 15.1431 8.55673H15.782C15.9026 8.55673 16.0003 8.65445 16.0003 8.775C16.0003 9.00532 16.3108 9.07861 16.4138 8.87261L16.499 8.70224C16.5435 8.61306 16.6347 8.55673 16.7344 8.55673H18.0003C18.1581 8.55673 18.286 8.68465 18.286 8.84245C18.286 9.00024 18.1581 9.12816 18.0003 9.12816H17.4289C17.2711 9.12816 17.1431 9.25608 17.1431 9.41388C17.1431 9.57167 17.2711 9.69959 17.4289 9.69959H18.0003C18.1581 9.69959 18.286 9.82751 18.286 9.9853V11.6996C18.286 11.8574 18.1581 11.9853 18.0003 11.9853H17.4289C17.2711 11.9853 17.1431 11.8574 17.1431 11.6996V11.1282C17.1431 10.9704 17.2711 10.8424 17.4289 10.8424C17.5866 10.8424 17.7146 10.7145 17.7146 10.5567C17.7146 10.3989 17.5866 10.271 17.4289 10.271H16.8574C16.6996 10.271 16.5717 10.3989 16.5717 10.5567V11.6996C16.5717 11.8574 16.4438 11.9853 16.286 11.9853C16.1282 11.9853 16.0003 11.8574 16.0003 11.6996V11.1282C16.0003 10.9704 15.8724 10.8424 15.7146 10.8424C15.5568 10.8424 15.4289 10.9704 15.4289 11.1282V11.6996C15.4289 11.8574 15.3009 11.9853 15.1431 11.9853C14.9853 11.9853 14.8574 11.8574 14.8574 11.6996V10.9608Z" fill="white"/>
<path fill-rule="evenodd" clip-rule="evenodd" d="M13.7137 9.4112C13.7137 9.57047 13.6244 9.78887 13.5074 9.90589L13.3486 10.0647C13.2347 10.1787 13.2316 10.3603 13.3486 10.4773L13.5074 10.6361C13.6214 10.7501 13.7137 10.9648 13.7137 11.1308V11.6969C13.7137 11.8562 13.5914 11.9853 13.4253 11.9853H12.8593C12.7 11.9853 12.5709 11.863 12.5709 11.6969V11.1308C12.5709 10.9716 12.5181 10.9479 12.4383 11.1075L12.132 11.7202C12.0588 11.8666 11.8649 11.9853 11.7164 11.9853H10.5682C10.4119 11.9853 10.2852 11.8528 10.2852 11.6996C10.2852 11.5418 10.4075 11.4139 10.5735 11.4139H11.1396C11.2989 11.4139 11.428 11.2813 11.428 11.1282C11.428 10.9704 11.3057 10.8424 11.1396 10.8424H10.5735C10.4143 10.8424 10.2852 10.7196 10.2852 10.5622V8.83701C10.2852 8.68221 10.4075 8.55673 10.5735 8.55673H11.1396C11.2989 8.55673 11.428 8.67904 11.428 8.84512V9.4112C11.428 9.57047 11.2955 9.69959 11.1423 9.69959C10.9845 9.69959 10.8566 9.83212 10.8566 9.9853C10.8566 10.1431 10.9789 10.271 11.145 10.271H11.7111C11.8703 10.271 11.9994 10.1365 11.9994 9.98794V8.83981C11.9994 8.68347 12.132 8.55673 12.2852 8.55673C12.443 8.55673 12.5709 8.67904 12.5709 8.84512V9.4112C12.5709 9.57047 12.7034 9.69959 12.8566 9.69959C13.0144 9.69959 13.1423 9.57728 13.1423 9.4112V8.84512C13.1423 8.68585 13.2748 8.55673 13.428 8.55673C13.5858 8.55673 13.7137 8.67904 13.7137 8.84512V9.4112Z" fill="white"/>
</g>
</svg>
