<svg width="20" height="20" viewBox="0 0 20 20" fill="none" xmlns="http://www.w3.org/2000/svg">
<path d="M9.99956 5.50004C9.10954 5.50004 8.23951 5.76396 7.49949 6.25843C6.75947 6.7529 6.18269 7.4557 5.8421 8.27797C5.5015 9.10024 5.41239 10.005 5.58602 10.8779C5.75965 11.7509 6.18824 12.5527 6.81757 13.182C7.44691 13.8114 8.24873 14.2399 9.12165 14.4136C9.99456 14.5872 10.8994 14.4981 11.7216 14.1575C12.5439 13.8169 13.2467 13.2401 13.7412 12.5001C14.2356 11.7601 14.4996 10.8901 14.4996 10C14.4983 8.80695 14.0238 7.66308 13.1802 6.81943C12.3365 5.97579 11.1926 5.50128 9.99956 5.50004ZM9.99956 13C9.40621 13 8.82619 12.8241 8.33284 12.4945C7.8395 12.1648 7.45498 11.6963 7.22792 11.1481C7.00085 10.5999 6.94144 9.99672 7.0572 9.41477C7.17295 8.83283 7.45868 8.29828 7.87823 7.87872C8.29779 7.45917 8.83234 7.17344 9.41428 7.05769C9.99623 6.94193 10.5994 7.00134 11.1476 7.2284C11.6958 7.45547 12.1643 7.83999 12.494 8.33333C12.8236 8.82668 12.9996 9.4067 12.9996 10C12.9996 10.7957 12.6835 11.5588 12.1209 12.1214C11.5583 12.684 10.7952 13 9.99956 13ZM18.2496 10.2025C18.2533 10.0675 18.2533 9.93254 18.2496 9.79754L19.6483 8.05004C19.7216 7.95829 19.7724 7.8506 19.7965 7.73563C19.8206 7.62067 19.8174 7.50165 19.7871 7.38817C19.5578 6.52623 19.2147 5.69865 18.7671 4.92723C18.7084 4.82628 18.6271 4.7404 18.5294 4.67644C18.4318 4.61248 18.3205 4.57219 18.2046 4.55879L15.9808 4.31129C15.8883 4.21379 15.7946 4.12004 15.6996 4.03004L15.4371 1.80067C15.4236 1.68462 15.3831 1.57333 15.319 1.47567C15.2549 1.37801 15.1688 1.29668 15.0677 1.23817C14.296 0.791306 13.4685 0.448637 12.6067 0.219105C12.4932 0.188915 12.3741 0.185827 12.2592 0.210091C12.1442 0.234354 12.0365 0.28529 11.9449 0.358793L10.2021 1.75004C10.0671 1.75004 9.93206 1.75004 9.79706 1.75004L8.04955 0.354105C7.9578 0.280763 7.85011 0.229997 7.73514 0.205897C7.62018 0.181797 7.50116 0.185037 7.38768 0.215355C6.52588 0.445068 5.69836 0.788058 4.92674 1.23536C4.82579 1.29397 4.73992 1.37535 4.67595 1.473C4.61199 1.57065 4.5717 1.68189 4.5583 1.79786L4.3108 4.02536C4.2133 4.11848 4.11955 4.21223 4.02955 4.30661L1.80018 4.56254C1.68413 4.57605 1.57284 4.61647 1.47518 4.6806C1.37752 4.74473 1.29619 4.83079 1.23768 4.93192C0.790817 5.70363 0.448149 6.53114 0.218617 7.39286C0.188427 7.50641 0.185339 7.62547 0.209602 7.74044C0.233866 7.8554 0.284802 7.96306 0.358305 8.05473L1.74955 9.79754C1.74955 9.93254 1.74955 10.0675 1.74955 10.2025L0.353617 11.95C0.280275 12.0418 0.229509 12.1495 0.205409 12.2645C0.181309 12.3794 0.184548 12.4984 0.214867 12.6119C0.44417 13.4739 0.787182 14.3014 1.23487 15.0729C1.29349 15.1738 1.37486 15.2597 1.47251 15.3236C1.57017 15.3876 1.6814 15.4279 1.79737 15.4413L4.02112 15.6888C4.11424 15.7863 4.20799 15.88 4.30237 15.97L4.56206 18.1994C4.57556 18.3155 4.61598 18.4268 4.68011 18.5244C4.74424 18.6221 4.8303 18.7034 4.93143 18.7619C5.70315 19.2088 6.53066 19.5515 7.39237 19.781C7.50592 19.8112 7.62498 19.8143 7.73995 19.79C7.85491 19.7657 7.96257 19.7148 8.05424 19.6413L9.79706 18.25C9.93206 18.2538 10.0671 18.2538 10.2021 18.25L11.9496 19.6488C12.0413 19.7221 12.149 19.7729 12.264 19.797C12.3789 19.8211 12.4979 19.8179 12.6114 19.7875C13.4734 19.5582 14.3009 19.2152 15.0724 18.7675C15.1733 18.7089 15.2592 18.6276 15.3232 18.5299C15.3871 18.4322 15.4274 18.321 15.4408 18.205L15.6883 15.9813C15.7858 15.8888 15.8796 15.795 15.9696 15.7L18.1989 15.4375C18.315 15.424 18.4263 15.3836 18.5239 15.3195C18.6216 15.2554 18.7029 15.1693 18.7614 15.0682C19.2083 14.2965 19.551 13.4689 19.7805 12.6072C19.8107 12.4937 19.8138 12.3746 19.7895 12.2597C19.7652 12.1447 19.7143 12.037 19.6408 11.9454L18.2496 10.2025ZM16.7402 9.59317C16.7561 9.86419 16.7561 10.1359 16.7402 10.4069C16.729 10.5925 16.7871 10.7756 16.9033 10.9207L18.2336 12.5829C18.081 13.068 17.8855 13.5386 17.6496 13.9891L15.5308 14.2291C15.3463 14.2496 15.1759 14.3378 15.0527 14.4766C14.8722 14.6796 14.68 14.8718 14.4771 15.0522C14.3382 15.1755 14.25 15.3458 14.2296 15.5304L13.9942 17.6472C13.5438 17.8833 13.0732 18.0788 12.588 18.2313L10.9249 16.901C10.7918 16.7946 10.6265 16.7368 10.4561 16.7369H10.4111C10.1401 16.7529 9.86838 16.7529 9.59737 16.7369C9.41182 16.7257 9.22874 16.7839 9.08362 16.9L7.41674 18.2313C6.93162 18.0786 6.46102 17.8832 6.01049 17.6472L5.77049 15.5313C5.75001 15.3468 5.66182 15.1764 5.52299 15.0532C5.32003 14.8727 5.12783 14.6805 4.94737 14.4775C4.82412 14.3387 4.65376 14.2505 4.46924 14.23L2.35237 13.9938C2.1163 13.5433 1.92084 13.0727 1.7683 12.5875L3.09862 10.9244C3.21478 10.7793 3.27291 10.5962 3.26174 10.4107C3.24581 10.1397 3.24581 9.86793 3.26174 9.59692C3.27291 9.41137 3.21478 9.22829 3.09862 9.08317L1.7683 7.41723C1.92095 6.93211 2.11641 6.4615 2.35237 6.01098L4.46831 5.77098C4.65282 5.7505 4.82318 5.66231 4.94643 5.52348C5.12689 5.32052 5.31909 5.12832 5.52205 4.94786C5.66144 4.82452 5.74999 4.65377 5.77049 4.46879L6.00581 2.35286C6.45628 2.11679 6.92689 1.92132 7.41206 1.76879L9.07518 3.09911C9.2203 3.21527 9.40338 3.2734 9.58893 3.26223C9.85995 3.24629 10.1317 3.24629 10.4027 3.26223C10.5882 3.2734 10.7713 3.21527 10.9164 3.09911L12.5824 1.76879C13.0675 1.92144 13.5381 2.1169 13.9886 2.35286L14.2286 4.46879C14.2491 4.65331 14.3373 4.82367 14.4761 4.94692C14.6791 5.12738 14.8713 5.31958 15.0517 5.52254C15.175 5.66138 15.3454 5.74956 15.5299 5.77004L17.6467 6.00536C17.8828 6.45583 18.0783 6.92644 18.2308 7.41161L16.9005 9.07473C16.7832 9.22107 16.725 9.40604 16.7374 9.59317H16.7402Z" fill="#00BDD6"/>
</svg>
