<svg width="13" height="31" viewBox="0 0 13 31" fill="none" xmlns="http://www.w3.org/2000/svg">
<path d="M6.72617 0.481445C4.42652 0.481445 2.54349 2.41085 2.54349 4.76716C2.54349 5.90974 2.99689 6.9435 3.71987 7.71359C1.78375 8.81013 0.452148 10.9237 0.452148 13.3386V19.131L0.746243 19.4658L2.54349 21.3073V30.4814H4.63483V20.4033L4.34074 20.0685L2.54349 18.227V13.3386C2.54349 10.9614 4.40609 9.05287 6.72617 9.05287C9.04626 9.05287 10.9089 10.9614 10.9089 13.3386V18.227L9.11161 20.0685L8.81752 20.4033V30.4814H10.9089V21.3073L12.7061 19.4658L13.0002 19.131V13.3386C13.0002 10.9237 11.6686 8.81013 9.73248 7.71359C10.4555 6.9435 10.9089 5.90974 10.9089 4.76716C10.9089 2.41085 9.02584 0.481445 6.72617 0.481445ZM6.72617 2.6243C7.89439 2.6243 8.81752 3.57017 8.81752 4.76716C8.81752 5.96415 7.89439 6.91002 6.72617 6.91002C5.55796 6.91002 4.63483 5.96415 4.63483 4.76716C4.63483 3.57017 5.55796 2.6243 6.72617 2.6243Z" fill="#00BDD6"/>
</svg>
