<svg width="17" height="16" viewBox="0 0 17 16" fill="none" xmlns="http://www.w3.org/2000/svg">
<path d="M13.6468 0.0969163C13.7597 -0.0251909 13.9488 -0.0330687 14.0709 0.0798475C14.193 0.192764 14.2009 0.381833 14.088 0.50394L11.6301 3.16404L11.6261 3.16929C11.3255 3.53298 11.1193 3.86911 11.0274 4.17634C10.946 4.44813 10.9578 4.69497 11.0786 4.9103C11.143 5.02584 11.122 5.16764 11.0366 5.26087L9.86937 6.52395C9.75515 6.39922 9.66455 6.29812 9.60415 6.23247C9.57658 6.19571 9.54507 6.16026 9.51224 6.12612L9.50962 6.12875C9.49386 6.11168 9.47679 6.09592 9.45972 6.08017L10.4576 4.99958C10.3407 4.68709 10.342 4.35491 10.4497 4.00172C10.5653 3.61833 10.8108 3.20999 11.164 2.78459C11.1719 2.77408 11.1784 2.76358 11.1876 2.75439L13.6442 0.0942903L13.6468 0.0969163ZM8.36733 7.22246C8.25704 7.09904 8.26754 6.90866 8.39096 6.79837C8.51438 6.68808 8.70476 6.69858 8.81505 6.822C10.0506 8.20588 13.87 12.3011 14.9283 13.832C16.324 15.808 14.1628 16.4304 13.4459 15.7109C11.655 13.9791 7.85264 9.5635 6.18121 7.69119C5.57987 7.94591 4.99559 7.9853 4.40869 7.81724C3.77715 7.63736 3.15873 7.21589 2.53113 6.56859L2.52325 6.56072C2.04533 6.05653 1.67113 5.55891 1.40065 5.06655C1.12362 4.55973 0.954241 4.05818 0.893844 3.56056C0.829508 3.02486 0.879401 2.52593 1.02383 2.08345C1.1932 1.56351 1.49388 1.12367 1.88777 0.796735C2.28429 0.46849 2.77141 0.255787 3.31498 0.190138C3.76664 0.136306 4.25901 0.18226 4.76845 0.349008C5.47352 0.57878 6.29544 1.14993 6.97688 1.88257C7.47975 2.4222 7.91041 3.05375 8.16644 3.70367C8.43297 4.38117 8.51438 5.0823 8.30036 5.73879C8.17432 6.12743 7.94586 6.49244 7.59135 6.822C7.46925 6.93492 7.28018 6.92704 7.16726 6.80624C7.05435 6.68414 7.06222 6.49507 7.18302 6.38215C7.45743 6.12612 7.63337 5.84646 7.72922 5.55103C7.89465 5.04291 7.82507 4.47964 7.60711 3.92557C7.37865 3.34523 6.99132 2.77802 6.53703 2.29091C5.92256 1.63179 5.19385 1.12104 4.57938 0.920155C4.15791 0.783605 3.75483 0.744215 3.38588 0.788857C2.95785 0.841376 2.57446 1.0055 2.26853 1.26153C1.9613 1.51756 1.72627 1.86287 1.59104 2.27384C1.47418 2.63228 1.43348 3.04456 1.48731 3.48966C1.53852 3.90981 1.68426 4.33915 1.92322 4.77769C2.174 5.22804 2.518 5.68365 2.96047 6.14975L2.9631 6.15369C3.51718 6.72484 4.04893 7.09247 4.57544 7.24215C5.07306 7.38395 5.57987 7.32881 6.109 7.0649C6.22979 6.99531 6.38604 7.01895 6.48189 7.12661C8.11261 8.95297 12.0791 13.5497 13.8359 15.2526C14.5987 15.5638 15.0215 15.1804 14.6565 14.5042C14.088 13.4486 9.20369 8.16255 8.36733 7.22246ZM6.78387 9.86286L2.95522 14.0053C2.94734 14.0132 2.94078 14.0211 2.93159 14.0289C2.37226 14.6329 3.36225 15.5126 3.97672 14.9244L7.69508 10.9001L8.09423 11.3531L4.40475 15.3459C4.39687 15.3551 4.389 15.3629 4.37849 15.3721C4.15791 15.5573 3.93602 15.678 3.7115 15.7279C3.48041 15.7805 3.25327 15.7568 3.03531 15.6544C2.99855 15.64 2.96441 15.6216 2.93421 15.594L2.40508 15.1043C2.39721 15.0964 2.38933 15.0898 2.38145 15.0806C2.17663 14.8443 2.07946 14.5922 2.10572 14.3257C2.13067 14.0736 2.2646 13.8281 2.518 13.5917L6.38341 9.40857L6.78387 9.86286ZM10.7963 7.54414L11.0235 7.29861C11.1364 7.1765 11.3268 7.16863 11.4476 7.28154C11.5684 7.39446 11.5776 7.58353 11.4646 7.70563L11.202 7.98924L10.7963 7.54414ZM14.5803 0.9753C14.6933 0.853193 14.8823 0.845315 15.0044 0.958231C15.1265 1.07115 15.1344 1.26022 15.0215 1.38232L12.8669 3.71549C12.754 3.8376 12.5649 3.84547 12.4428 3.73256C12.3207 3.61964 12.3128 3.43057 12.4257 3.30847L14.5803 0.9753ZM15.5126 1.83793C15.6255 1.71582 15.8145 1.70794 15.9367 1.82086C16.0588 1.93378 16.0666 2.12284 15.9537 2.24495L13.8004 4.5768C13.6875 4.69891 13.4985 4.70679 13.3763 4.59387C13.2542 4.48096 13.2464 4.29189 13.3593 4.16978L15.5126 1.83793ZM16.4789 2.73469C16.5918 2.61259 16.7809 2.60471 16.903 2.71762C17.0251 2.83054 17.033 3.02092 16.9201 3.14172L14.4622 5.80313C14.453 5.81232 14.4438 5.8202 14.4346 5.82939C13.8753 6.36771 13.3409 6.67888 12.8301 6.76685C12.2761 6.8627 11.7679 6.70514 11.3018 6.29812C11.1771 6.18914 11.1653 5.99876 11.273 5.87534C11.3819 5.75061 11.5723 5.73879 11.6957 5.84646C12.0174 6.12743 12.3614 6.23772 12.7251 6.17339C13.1164 6.10643 13.547 5.84777 14.0171 5.39479L14.0197 5.39216L16.4763 2.73338L16.4789 2.73469Z" fill="#00BDD6"/>
</svg>
