<svg width="29" height="16" viewBox="0 0 29 16" fill="none" xmlns="http://www.w3.org/2000/svg">
<path d="M4.00461 9.83406C2.7175 8.58826 2.03682 7.13518 2.03682 5.63175C2.03682 4.13365 2.7121 2.68551 3.99031 1.44356C4.26749 1.17374 4.15169 0.810547 3.73219 0.632229C3.31143 0.453876 2.74649 0.527819 2.46883 0.797995C0.993636 2.23242 0.213867 3.90348 0.213867 5.63175C0.213867 7.36612 0.999587 9.04327 2.48548 10.4812C2.76249 10.7492 3.32792 10.8246 3.74884 10.6454C4.1684 10.4667 4.28294 10.1031 4.00461 9.83406Z" fill="white"/>
<path d="M25.8875 0.775833C25.6085 0.507199 25.043 0.434414 24.6235 0.612766C24.2045 0.79189 24.0906 1.15505 24.3695 1.42449C25.6608 2.67103 26.3432 4.12604 26.3432 5.63171C26.3432 7.12939 25.6679 8.57795 24.3897 9.8199C24.1125 10.0897 24.2283 10.4529 24.6478 10.6312C25.0659 10.8082 25.6314 10.7368 25.9112 10.4655C27.3864 9.03111 28.1662 7.35963 28.1662 5.63175C28.1662 3.89436 27.3781 2.21563 25.8875 0.775833Z" fill="white"/>
<path d="M22.8637 2.08577C22.5859 1.81482 22.0204 1.74165 21.6009 1.91961C21.1807 2.09762 21.0651 2.46077 21.3422 2.73056C22.2258 3.59028 22.6928 4.59371 22.6928 5.63182C22.6928 6.66993 22.2258 7.67332 21.3422 8.53307C21.065 8.8029 21.1808 9.16609 21.6009 9.34402C22.0228 9.52259 22.5876 9.44651 22.8637 9.17787C23.9442 8.12606 24.5157 6.89971 24.5157 5.63182C24.5157 4.36393 23.9443 3.13755 22.8637 2.08577Z" fill="white"/>
<path d="M7.03793 8.53303C6.15432 7.67331 5.68727 6.66988 5.68727 5.63177C5.68727 4.94581 5.88959 4.27777 6.28895 3.64514C6.47768 3.34558 6.25281 3.00413 5.78636 2.88257C5.3205 2.76253 4.78821 2.90617 4.59893 3.20534C4.11173 3.97821 3.86426 4.79449 3.86426 5.63177C3.86426 6.89966 4.43569 8.12601 5.51633 9.17782C5.79067 9.44541 6.35566 9.52317 6.7791 9.34398C7.19931 9.16601 7.31505 8.80285 7.03793 8.53303Z" fill="white"/>
<path d="M20.0947 2.38452C18.6432 0.206213 14.7956 -0.362398 11.9163 0.206564C9.39542 0.705405 6.75765 2.29154 7.61996 5.12113C8.00862 6.39779 8.90178 7.64854 9.49222 8.47589C9.82502 8.94213 10.1078 9.25533 10.2684 10.1435H19.1849C19.5691 9.50559 20.0408 8.88396 20.303 8.23082C21.1724 6.07043 21.0946 3.88487 20.0947 2.38452Z" fill="white"/>
<path d="M18.697 11.5806C18.6895 11.4929 18.6939 11.404 18.7047 11.3142H9.83341C8.70992 12.5687 8.50546 13.885 9.33469 14.8031C10.7734 16.3956 15.1997 16.362 17.2147 14.922C18.3048 14.1427 18.8175 12.9872 18.697 11.5806Z" fill="white"/>
</svg>
