<svg width="14" height="16" viewBox="0 0 14 16" fill="none" xmlns="http://www.w3.org/2000/svg">
<path d="M12.7744 2.66181L12.7744 2.66178C12.1487 1.7229 10.9669 1.082 9.5253 0.752766C8.09406 0.425896 6.48344 0.425481 5.10902 0.697053L12.7744 2.66181ZM12.7744 2.66181C13.6566 3.98553 13.7627 5.98702 12.9349 8.04416L12.9347 8.04454C12.8205 8.32914 12.6559 8.6178 12.4618 8.92717C12.391 9.04012 12.3119 9.1623 12.2303 9.2882C12.1547 9.40493 12.0771 9.52485 12.002 9.64355H3.76484C3.68772 9.35701 3.59286 9.12398 3.48154 8.91575C3.35818 8.685 3.21373 8.48667 3.08371 8.30816C3.05316 8.26622 3.02341 8.22537 2.99491 8.18545C2.3951 7.34496 1.55469 6.16035 1.19399 4.97551L1.19395 4.97538M12.7744 2.66181L1.19395 4.97538M1.19395 4.97538C1.00403 4.35218 1.01332 3.82337 1.14781 3.3726M1.19395 4.97538L1.14781 3.3726M1.14781 3.3726C1.28322 2.91877 1.55505 2.51276 1.9371 2.15458M1.14781 3.3726L1.9371 2.15458M1.9371 2.15458C2.71093 1.42912 3.90031 0.93626 5.10888 0.697079L1.9371 2.15458Z" stroke="#00BDD6"/>
<path d="M11.3067 11.8143H3.15873C2.73308 12.3325 2.5051 12.8275 2.44221 13.2573C2.37493 13.7171 2.49118 14.1245 2.80141 14.4679L11.3067 11.8143ZM11.3067 11.8143C11.3536 12.9662 10.9084 13.8799 10.0196 14.5153C9.12944 15.1514 7.63739 15.5101 6.15775 15.4998C5.42682 15.4947 4.7251 15.3993 4.13138 15.2179C3.53209 15.0347 3.07891 14.7751 2.80144 14.468L11.3067 11.8143Z" stroke="#00BDD6"/>
</svg>
