<svg width="18" height="18" viewBox="0 0 18 18" fill="none" xmlns="http://www.w3.org/2000/svg">
<path d="M9 5.44444L9.88889 3.66667M4.64427 4.55653C4.58609 4.84344 4.55556 5.14037 4.55556 5.44444C4.55556 7.89902 6.5454 9.88889 9 9.88889C11.4546 9.88889 13.4444 7.89902 13.4444 5.44444C13.4444 5.14037 13.4139 4.84344 13.3557 4.55653M4.64427 4.55653C5.05568 2.52739 6.84947 1 9 1C11.1505 1 12.9444 2.52739 13.3557 4.55653M4.64427 4.55653C3.55358 4.56207 2.94107 4.59907 2.45603 4.8462C1.95426 5.10187 1.54631 5.50981 1.29065 6.01158C1 6.58201 1 7.32871 1 8.82222V12.7333C1 14.2268 1 14.9735 1.29065 15.544C1.54631 16.0458 1.95426 16.4537 2.45603 16.7093C3.02645 17 3.77319 17 5.26667 17H12.7333C14.2268 17 14.9735 17 15.544 16.7093C16.0458 16.4537 16.4537 16.0458 16.7093 15.544C17 14.9735 17 14.2268 17 12.7333V8.82222C17 7.32871 17 6.58201 16.7093 6.01158C16.4537 5.50981 16.0458 5.10187 15.544 4.8462C15.0589 4.59907 14.4464 4.56207 13.3557 4.55653" stroke="#00BDD6" stroke-linecap="round" stroke-linejoin="round"/>
</svg>
