<svg width="36" height="22" viewBox="0 0 36 22" fill="none" xmlns="http://www.w3.org/2000/svg">
<path d="M7.66667 1H4.33333C2.49238 1 1 2.49238 1 4.33333V17.6667C1 19.5076 2.49238 21 4.33333 21H7.66667C9.50762 21 11 19.5076 11 17.6667V4.33333C11 2.49238 9.50762 1 7.66667 1Z" stroke="white" stroke-width="1.5" stroke-linecap="round" stroke-linejoin="round"/>
<path d="M31.0002 1H27.6668C25.8259 1 24.3335 2.49238 24.3335 4.33333V17.6667C24.3335 19.5076 25.8259 21 27.6668 21H31.0002C32.8411 21 34.3335 19.5076 34.3335 17.6667V4.33333C34.3335 2.49238 32.8411 1 31.0002 1Z" stroke="white" stroke-width="1.5" stroke-linecap="round" stroke-linejoin="round"/>
<path d="M11 7.66667H24.3333" stroke="white" stroke-width="1.5" stroke-linecap="round" stroke-linejoin="round"/>
<path d="M24.3333 14.3333H11" stroke="white" stroke-width="1.5" stroke-linecap="round" stroke-linejoin="round"/>
</svg>
